<?xml version="1.0" encoding="utf-8"?>
<!-- Generator: Adobe Illustrator 21.0.0, SVG Export Plug-In . SVG Version: 6.00 Build 0)  -->
<svg version="1.0" id="Layer_1" xmlns="http://www.w3.org/2000/svg" xmlns:xlink="http://www.w3.org/1999/xlink" x="0px" y="0px"
	 viewBox="0 0 360 346" enable-background="new 0 0 360 346" xml:space="preserve">
<g id="XMLID_9_">
	<g id="XMLID_1479_">
		<path id="XMLID_1480_" fill="#24572B" d="M180,339.5c-89,0-161.4-72.5-161.4-161.7c0-6.4,0.4-12.9,1.1-19.2
			c0.1-0.4,0.4-0.7,0.9-0.7c0.4,0.1,0.7,0.4,0.7,0.9c-0.7,6.3-1.1,12.7-1.1,19c0,88.3,71.7,160.2,159.8,160.2
			c88.1,0,159.8-71.9,159.8-160.2c0-6.5-0.4-12.9-1.1-19.3c0-0.4,0.2-0.8,0.7-0.9c0.5,0,0.8,0.2,0.9,0.7c0.8,6.4,1.2,13,1.2,19.5
			C341.4,266.9,269,339.5,180,339.5z"/>
	</g>
	<g id="XMLID_1477_">
		<path id="XMLID_1478_" fill="#24572B" d="M89.7,45c-0.2,0-0.5-0.1-0.6-0.3c-0.2-0.4-0.1-0.8,0.2-1.1C116,25.5,147.2,16,179.6,16
			c28.1,0,55.8,7.3,80.1,21.2c0.4,0.2,0.5,0.7,0.3,1c-0.2,0.4-0.7,0.5-1,0.3c-24-13.7-51.5-21-79.3-21c-32.1,0-63,9.4-89.5,27.3
			C90,44.9,89.9,45,89.7,45z"/>
	</g>
	<g id="XMLID_1458_">
		<g id="XMLID_1475_">
			<path id="XMLID_1476_" fill="#24572B" d="M73,234.9c-0.4,0-0.7-0.3-0.8-0.6c-0.1-0.4,0.2-0.8,0.6-0.9l106.6-18.6
				c0.4-0.1,0.8,0.2,0.9,0.6c0.1,0.4-0.2,0.8-0.6,0.9L73.1,234.9C73,234.9,73,234.9,73,234.9z"/>
		</g>
		<g id="XMLID_1473_">
			<path id="XMLID_1474_" fill="#24572B" d="M95.5,264.8c-0.3,0-0.5-0.1-0.7-0.4c-0.2-0.4-0.1-0.8,0.3-1l84-48.4
				c0.4-0.2,0.8-0.1,1,0.3c0.2,0.4,0.1,0.8-0.3,1l-84,48.4C95.8,264.7,95.7,264.8,95.5,264.8z"/>
		</g>
		<g id="XMLID_1471_">
			<path id="XMLID_1472_" fill="#24572B" d="M122.4,284.3c-0.2,0-0.3-0.1-0.5-0.2c-0.3-0.3-0.4-0.8-0.1-1.1l57.2-68
				c0.3-0.3,0.8-0.4,1.1-0.1c0.3,0.3,0.4,0.8,0.1,1.1l-57.2,68C122.8,284.2,122.6,284.3,122.4,284.3z"/>
		</g>
		<g id="XMLID_1469_">
			<path id="XMLID_1470_" fill="#24572B" d="M150.7,295.3c-0.1,0-0.2,0-0.3,0c-0.4-0.1-0.6-0.6-0.5-1l28.8-79c0.1-0.4,0.6-0.6,1-0.5
				c0.4,0.1,0.6,0.6,0.5,1l-28.8,79C151.3,295.1,151,295.3,150.7,295.3z"/>
		</g>
		<g id="XMLID_1467_">
			<path id="XMLID_1468_" fill="#24572B" d="M179.5,299c-0.4,0-0.8-0.3-0.8-0.8v-82.6c0-0.4,0.3-0.8,0.8-0.8c0.4,0,0.8,0.3,0.8,0.8
				v82.6C180.3,298.6,179.9,299,179.5,299z"/>
		</g>
		<g id="XMLID_1465_">
			<path id="XMLID_1466_" fill="#24572B" d="M208.5,295.8c-0.3,0-0.6-0.2-0.7-0.5l-29-79.5c-0.1-0.4,0.1-0.8,0.5-1
				c0.4-0.1,0.8,0.1,1,0.5l29,79.5c0.1,0.4-0.1,0.8-0.5,1C208.7,295.8,208.6,295.8,208.5,295.8z"/>
		</g>
		<g id="XMLID_1463_">
			<path id="XMLID_1464_" fill="#24572B" d="M237.4,285.1c-0.2,0-0.4-0.1-0.6-0.3l-57.9-68.8c-0.3-0.3-0.2-0.8,0.1-1.1
				c0.3-0.3,0.8-0.2,1.1,0.1l57.9,68.8c0.3,0.3,0.2,0.8-0.1,1.1C237.8,285.1,237.6,285.1,237.4,285.1z"/>
		</g>
		<g id="XMLID_1461_">
			<path id="XMLID_1462_" fill="#24572B" d="M265,265.5c-0.1,0-0.3,0-0.4-0.1l-85.5-49.2c-0.4-0.2-0.5-0.7-0.3-1s0.7-0.5,1-0.3
				l85.5,49.2c0.4,0.2,0.5,0.7,0.3,1C265.5,265.4,265.2,265.5,265,265.5z"/>
		</g>
		<g id="XMLID_1459_">
			<path id="XMLID_1460_" fill="#24572B" d="M288.1,235.4c0,0-0.1,0-0.1,0l-108.6-19.1c-0.4-0.1-0.7-0.5-0.6-0.9
				c0.1-0.4,0.5-0.7,0.9-0.6l108.6,19.1c0.4,0.1,0.7,0.5,0.6,0.9C288.8,235.1,288.5,235.4,288.1,235.4z"/>
		</g>
	</g>
	<g id="XMLID_1456_">
		<path id="XMLID_1457_" fill="#24572B" d="M33.5,189.7c-0.4,0-0.7-0.3-0.8-0.7c-0.2-3.2-0.3-6.4-0.3-9.6c0-0.4,0.3-0.8,0.8-0.8
			s0.8,0.3,0.8,0.8c0,3.2,0.1,6.4,0.3,9.5C34.3,189.3,34,189.6,33.5,189.7C33.5,189.7,33.5,189.7,33.5,189.7z"/>
	</g>
	<g id="XMLID_1454_">
		<path id="XMLID_1455_" fill="#24572B" d="M180.1,324.7c-67.9,0-126.9-45.2-143.3-110c-0.1-0.4,0.1-0.8,0.6-0.9
			c0.4-0.1,0.8,0.1,0.9,0.6c16.3,64.1,74.6,108.8,141.8,108.8c67.4,0,125.7-44.9,141.9-109.1c0.1-0.4,0.5-0.7,0.9-0.6
			c0.4,0.1,0.7,0.5,0.6,0.9C307.2,279.3,248.2,324.7,180.1,324.7z"/>
	</g>
	<g id="XMLID_1452_">
		<path id="XMLID_1453_" fill="#24572B" d="M326.7,190.2C326.7,190.2,326.7,190.2,326.7,190.2c-0.5,0-0.8-0.4-0.8-0.8
			c0.2-3.3,0.3-6.7,0.3-10c0-0.4,0.3-0.8,0.8-0.8s0.8,0.3,0.8,0.8c0,3.4-0.1,6.8-0.4,10.1C327.5,189.9,327.1,190.2,326.7,190.2z"/>
	</g>
	<g id="XMLID_1450_">
		<path id="XMLID_1451_" fill="#24572B" d="M59.3,187.3c-0.4,0-0.7-0.3-0.8-0.7c-0.2-2.5-0.2-5-0.2-7.5c0-0.4,0.3-0.8,0.8-0.8
			s0.8,0.3,0.8,0.8c0,2.5,0.1,5,0.2,7.4C60.1,186.9,59.7,187.3,59.3,187.3C59.3,187.3,59.3,187.3,59.3,187.3z"/>
	</g>
	<g id="XMLID_1448_">
		<path id="XMLID_1449_" fill="#24572B" d="M180.7,299.4c-53.7,0-100.6-33.8-116.8-84.2c-0.1-0.4,0.1-0.8,0.5-1
			c0.4-0.1,0.8,0.1,1,0.5c15.9,49.7,62.3,83.1,115.3,83.1S280,264.5,296,214.8c0.1-0.4,0.6-0.6,1-0.5c0.4,0.1,0.6,0.6,0.5,1
			C281.3,265.6,234.4,299.4,180.7,299.4z"/>
	</g>
	<g id="XMLID_1446_">
		<path id="XMLID_1447_" fill="#24572B" d="M302,187.3C302,187.3,302,187.3,302,187.3c-0.5,0-0.8-0.4-0.8-0.8c0.2-2.4,0.2-5,0.2-7.4
			c0-0.4,0.3-0.8,0.8-0.8c0.4,0,0.8,0.3,0.8,0.8c0,2.5-0.1,5.1-0.2,7.5C302.8,187,302.5,187.3,302,187.3z"/>
	</g>
	<g id="XMLID_1381_">
		<g id="XMLID_1443_">
			<path fill="#24572B" d="M56.1,221l0.9,2.4c0.6,1.7,0.2,2.7-1.1,3.2l0,0c-1.2,0.5-2.3-0.1-2.8-1.6l-0.2-0.6l-1.9,0.7l-0.7-1.9
				L56.1,221z M54.2,224.4c0.2,0.5,0.5,0.7,1,0.5l0,0c0.5-0.2,0.5-0.5,0.4-1l-0.2-0.4l-1.3,0.5L54.2,224.4z"/>
		</g>
		<g id="XMLID_1440_">
			<path fill="#24572B" d="M60.5,231.8l1.1,2.3c0.8,1.6,0.5,2.7-0.7,3.3l0,0c-0.8,0.4-1.4,0.2-2-0.2l-1.7,2.4l-0.9-1.9l1.4-2
				l-0.1-0.3l-2,1l-0.9-1.8L60.5,231.8z M59,235.3c0.2,0.5,0.6,0.6,1,0.4l0,0c0.4-0.2,0.5-0.5,0.2-1l-0.2-0.4l-1.2,0.6L59,235.3z"/>
		</g>
		<g id="XMLID_1438_">
			<path fill="#24572B" d="M65.6,241.7l1.1,1.9l-3,3.2l4.3-1.2l1,1.6l-6.5,1.5l-1.2-1.9L65.6,241.7z"/>
		</g>
		<g id="XMLID_1435_">
			<path fill="#24572B" d="M69.5,253.9L69.5,253.9c1.6-1.2,3.6-0.8,4.7,0.7c1.2,1.6,1.1,3.4-0.6,4.6l-0.1,0
				c-1.6,1.2-3.5,0.9-4.7-0.8C67.6,256.9,67.9,255,69.5,253.9z M72.3,257.7L72.3,257.7c0.9-0.7,1.1-1.4,0.6-2.1
				c-0.5-0.6-1.2-0.7-2.1,0l-0.1,0c-0.9,0.6-1.1,1.4-0.6,2C70.6,258.2,71.4,258.3,72.3,257.7z"/>
		</g>
		<g id="XMLID_1433_">
			<path fill="#24572B" d="M81.8,270.6l1.3,1.3c-0.3,0.3-0.4,0.7,0.1,1.1c0.3,0.3,0.6,0.3,0.9,0.1c0.2-0.2,0.2-0.5-0.3-1
				c-1.1-1.4-1.2-2.3-0.3-3.2c0.8-0.8,2.1-0.8,3.2,0.4c1.1,1.1,1.3,2.2,0.4,3.2l-1.3-1.3c0.2-0.3,0.2-0.6-0.1-0.9
				c-0.3-0.3-0.6-0.3-0.8-0.1c-0.2,0.2-0.2,0.4,0.2,1c1,1.2,1.3,2.2,0.4,3.2c-0.8,0.8-2.2,0.9-3.4-0.3
				C81,272.8,80.8,271.6,81.8,270.6z"/>
		</g>
		<g id="XMLID_1430_">
			<path fill="#24572B" d="M91.2,278L91.2,278c1.3-1.6,3.3-1.6,4.7-0.4c1.5,1.2,1.9,3.1,0.6,4.6l0,0.1c-1.3,1.5-3.2,1.7-4.8,0.4
				C90.1,281.3,89.9,279.5,91.2,278z M94.8,280.9L94.8,280.9c0.7-0.9,0.7-1.7,0.1-2.2c-0.6-0.5-1.4-0.4-2.1,0.5l0,0.1
				c-0.7,0.8-0.7,1.6-0.1,2.1C93.3,281.9,94.1,281.8,94.8,280.9z"/>
		</g>
		<g id="XMLID_1428_">
			<path fill="#24572B" d="M103.7,283.7l2.2,1.4l-0.8,3.2l2.6-2l2.1,1.4l-3.5,5.3l-1.7-1.1l2.1-3.1l-3.3,2.3l-0.6-0.4l0.9-3.9
				l-2.1,3.1l-1.5-1L103.7,283.7z"/>
		</g>
		<g id="XMLID_1424_">
			<path fill="#24572B" d="M115.7,291.3l2.6,1.4c1.4,0.7,1.6,1.6,1.1,2.5l0,0c-0.3,0.7-0.9,0.9-1.6,0.7c0.6,0.5,0.8,1.1,0.4,1.9l0,0
				c-0.5,1-1.5,1.2-2.9,0.5l-2.6-1.4L115.7,291.3z M115.6,296.9c0.5,0.2,0.8,0.1,1-0.2l0,0c0.2-0.4,0.1-0.7-0.4-0.9l-0.5-0.3
				l-0.6,1.2L115.6,296.9z M116.7,294.7c0.4,0.2,0.7,0.2,0.9-0.2l0,0c0.2-0.3,0.1-0.6-0.3-0.8l-0.5-0.3l-0.6,1L116.7,294.7z"/>
		</g>
		<g id="XMLID_1421_">
			<path fill="#24572B" d="M124.7,299.4L124.7,299.4c0.8-1.9,2.7-2.5,4.4-1.8c1.8,0.8,2.7,2.4,1.9,4.3l0,0.1
				c-0.8,1.8-2.5,2.5-4.4,1.7C124.6,302.9,124,301.2,124.7,299.4z M129,301.2L129,301.2c0.4-1.1,0.2-1.8-0.5-2.1
				c-0.7-0.3-1.4,0-1.8,1l0,0.1c-0.4,1-0.2,1.7,0.6,2.1C127.9,302.6,128.6,302.2,129,301.2z"/>
		</g>
		<g id="XMLID_1418_">
			<path fill="#24572B" d="M138.3,301.3l2.5,0.8c1.7,0.5,2.3,1.5,1.9,2.8l0,0c-0.3,0.8-0.8,1.2-1.5,1.3l0.6,2.9l-2-0.6l-0.5-2.4
				l-0.3-0.1l-0.6,2.1l-1.9-0.6L138.3,301.3z M139.8,304.7c0.5,0.2,0.9,0,1-0.4l0,0c0.1-0.4-0.1-0.7-0.6-0.9l-0.5-0.1l-0.4,1.3
				L139.8,304.7z"/>
		</g>
		<g id="XMLID_1416_">
			<path fill="#24572B" d="M148.5,308.6l1.9,0.4c-0.1,0.4,0.1,0.8,0.7,0.9c0.5,0.1,0.7-0.1,0.8-0.4c0.1-0.3-0.1-0.5-0.8-0.7
				c-1.7-0.6-2.2-1.2-2-2.5c0.2-1.1,1.4-1.8,2.9-1.4c1.5,0.3,2.3,1.1,2.1,2.5l-1.8-0.4c0-0.4-0.1-0.7-0.5-0.7
				c-0.4-0.1-0.7,0-0.7,0.3c-0.1,0.3,0.1,0.5,0.8,0.7c1.5,0.5,2.3,1.1,2,2.5c-0.2,1.2-1.4,1.9-3,1.6
				C149,311,148.2,310.1,148.5,308.6z"/>
		</g>
		<g id="XMLID_1414_">
			<path fill="#24572B" d="M161,306.6l2,0.3l-0.3,2.4l2-2.2l2.1,0.3l-2.6,2.6l1.9,3.7l-2.3-0.3l-1.3-2.7l-0.3,2.5l-2-0.3L161,306.6z
				"/>
		</g>
		<g id="XMLID_1411_">
			<path fill="#24572B" d="M172.4,311L172.4,311c0.1-2,1.6-3.3,3.5-3.2c1.9,0.1,3.4,1.3,3.3,3.3l0,0.1c-0.1,2-1.5,3.3-3.5,3.2
				C173.5,314.3,172.3,313,172.4,311z M177,311.2L177,311.2c0-1.1-0.5-1.8-1.3-1.8c-0.8,0-1.3,0.5-1.3,1.6l0,0.1
				c0,1.1,0.4,1.7,1.2,1.7C176.5,312.8,177,312.2,177,311.2z"/>
		</g>
		<g id="XMLID_1409_">
			<path fill="#24572B" d="M193.2,313.6l2-4.9l-2.2,0.2l-0.2-1.5l5-0.5l0,0.2l-2,4.9l2.3-0.3l0.2,1.5l-5.2,0.6L193.2,313.6z"/>
		</g>
		<g id="XMLID_1406_">
			<path fill="#24572B" d="M205.6,305.6l2.5-0.5l3.2,5.8l-2.1,0.4l-0.5-1l-2,0.4l-0.1,1.1l-1.8,0.4L205.6,305.6z M206.9,309.4
				l1.2-0.2L207,307L206.9,309.4z"/>
		</g>
		<g id="XMLID_1404_">
			<path fill="#24572B" d="M216.2,303.1l2.1-0.7l2.7,2.7l-1-3.2l1.7-0.5l1.8,6.1l-1.8,0.6l-3.1-3l1.1,3.6l-1.7,0.5L216.2,303.1z"/>
		</g>
		<g id="XMLID_1401_">
			<path fill="#24572B" d="M229.6,298.6l2.4-1l4.3,5.1l-2,0.8l-0.7-0.9l-1.8,0.8l0.1,1.1l-1.7,0.7L229.6,298.6z M231.6,302l1.2-0.5
				l-1.4-1.9L231.6,302z"/>
		</g>
		<g id="XMLID_1399_">
			<path fill="#24572B" d="M240.8,295.2l-1.4,0.7l-0.7-1.4l4.6-2.4l0.7,1.4l-1.4,0.7l2.2,4.3l-1.8,0.9L240.8,295.2z"/>
		</g>
		<g id="XMLID_1397_">
			<path fill="#24572B" d="M250.8,292.9l1.6-1c0.2,0.3,0.6,0.5,1.1,0.1c0.4-0.2,0.5-0.6,0.3-0.8c-0.2-0.3-0.4-0.3-1.1,0
				c-1.7,0.8-2.5,0.7-3.2-0.4c-0.6-1-0.3-2.2,1.1-3.1c1.3-0.8,2.4-0.8,3.2,0.4l-1.6,1c-0.2-0.3-0.6-0.4-0.9-0.2
				c-0.4,0.2-0.4,0.5-0.3,0.7c0.2,0.3,0.4,0.3,1,0c1.4-0.7,2.4-0.8,3.2,0.4c0.6,1,0.4,2.3-1.1,3.2
				C252.8,294.2,251.6,294.1,250.8,292.9z"/>
		</g>
		<g id="XMLID_1395_">
			<path fill="#24572B" d="M258.5,282.6l1.6-1.2l1.5,1.9l-0.1-3l1.7-1.3l0,3.7l3.9,1.3l-1.8,1.4l-2.8-1l1.5,2l-1.6,1.2L258.5,282.6z
				"/>
		</g>
		<g id="XMLID_1392_">
			<path fill="#24572B" d="M269.6,277.9L269.6,277.9c-1.4-1.5-1.1-3.5,0.2-4.7c1.4-1.3,3.3-1.4,4.7,0.1l0,0.1
				c1.3,1.5,1.2,3.4-0.3,4.8C272.7,279.4,270.9,279.3,269.6,277.9z M273,274.7L273,274.7c-0.8-0.8-1.6-0.9-2.1-0.4
				c-0.6,0.5-0.6,1.3,0.2,2.1l0,0.1c0.7,0.8,1.5,0.9,2.1,0.4C273.8,276.3,273.7,275.5,273,274.7z"/>
		</g>
		<g id="XMLID_1389_">
			<path fill="#24572B" d="M286.2,255.1l1.5-2.1c1.1-1.5,2.2-1.6,3.3-0.8l0,0c1.1,0.8,1.2,1.9,0.2,3.3l-0.4,0.5l1.7,1.2l-1.2,1.6
				L286.2,255.1z M290,254.8c0.3-0.4,0.3-0.8-0.1-1.1l0,0c-0.4-0.3-0.7-0.2-1,0.2l-0.2,0.3l1.2,0.8L290,254.8z"/>
		</g>
		<g id="XMLID_1387_">
			<path fill="#24572B" d="M292.7,245.5l1-1.7l5.5,3.3l-1,1.7L292.7,245.5z"/>
		</g>
		<g id="XMLID_1385_">
			<path fill="#24572B" d="M297,238.2l1-1.9l4.3,0.9l-3.3-3l0.8-1.7l4.8,4.7l-1,2L297,238.2z"/>
		</g>
		<g id="XMLID_1382_">
			<path fill="#24572B" d="M305.1,228.4L305.1,228.4c-1.9-0.7-2.6-2.6-1.9-4.3c0.7-1.8,2.3-2.7,4.2-2l0.1,0c1.9,0.7,2.6,2.4,1.9,4.4
				C308.6,228.4,306.9,229.1,305.1,228.4z M306.8,224L306.8,224c-1.1-0.4-1.8-0.1-2.1,0.6c-0.3,0.7,0.1,1.4,1.1,1.8l0.1,0
				c1,0.4,1.8,0.1,2-0.6C308.2,225.1,307.8,224.4,306.8,224z"/>
		</g>
	</g>
	<g id="XMLID_1379_">
		<path id="XMLID_1380_" fill="#24572B" d="M229.7,73.9c-0.4,0-0.8-0.3-0.8-0.8c0-6,4.9-10.9,10.9-10.9c2.1,0,4.1,0.6,5.8,1.7
			c0.3-3.9,3.2-7.1,7-7.9c-0.6-1.7-0.8-3.4-0.8-5.2c0-9.2,7.5-16.6,16.6-16.6c8.4,0,15.5,6.3,16.5,14.7c0,0.4-0.3,0.8-0.7,0.8
			c-0.5,0-0.8-0.3-0.9-0.7c-0.9-7.6-7.3-13.3-15-13.3c-8.3,0-15.1,6.8-15.1,15.1c0,1.9,0.4,3.7,1.1,5.5c0.1,0.2,0.1,0.5-0.1,0.7
			c-0.1,0.2-0.3,0.3-0.6,0.4c-3.7,0.3-6.6,3.4-6.6,7.1c0,0.3,0,0.5,0,0.8c0,0.3-0.1,0.6-0.4,0.8c-0.3,0.1-0.6,0.1-0.9-0.1
			c-1.7-1.5-3.9-2.3-6.1-2.3c-5.1,0-9.3,4.2-9.3,9.3C230.4,73.6,230.1,73.9,229.7,73.9z"/>
	</g>
	<g id="XMLID_1377_">
		<path id="XMLID_1378_" fill="#24572B" d="M117.5,79.5c0,0-0.1,0-0.1,0c-0.4-0.1-0.7-0.5-0.6-0.9c0.6-3.9-2.1-7.6-6-8.2
			c-0.5-0.1-0.9-0.1-1.4-0.1c-0.2,0-0.5-0.1-0.6-0.3c-0.2-0.2-0.2-0.4-0.2-0.6c0,0,0.1-0.3,0.1-0.3c0.6-4.3-1.7-8.4-5.8-10
			c-0.2-0.1-0.3-0.2-0.4-0.4c-0.1-0.2-0.1-0.4,0-0.6c0.2-0.5,0.4-1.1,0.4-1.6c0.3-1.9-0.2-3.8-1.3-5.3c-1.1-1.5-2.8-2.5-4.7-2.8
			c-2.1-0.3-4.2,0.3-5.8,1.7c-0.2,0.2-0.6,0.3-0.9,0.1c-0.3-0.2-0.4-0.5-0.4-0.8c0.7-5.1-2.9-9.9-8-10.6c-1.1-0.2-2.2-0.1-3.3,0.1
			c-1.4,0.3-2.8,0.9-4,1.8c-0.3,0.3-0.8,0.2-1.1-0.1c-0.3-0.3-0.2-0.8,0.1-1.1c1.3-1,2.9-1.8,4.6-2.1c1.2-0.2,2.5-0.3,3.8-0.1
			c5.3,0.8,9.3,5.4,9.4,10.7c1.7-1,3.7-1.4,5.7-1.1c4.7,0.7,8,5.2,7.3,9.9c-0.1,0.4-0.2,0.8-0.3,1.2c4.1,1.9,6.6,6.2,6.1,10.8
			c0.3,0,0.5,0,0.8,0.1c2.3,0.3,4.3,1.6,5.7,3.4s2,4.2,1.6,6.5C118.2,79.3,117.8,79.5,117.5,79.5z"/>
	</g>
	<g id="XMLID_1373_">
		<path id="XMLID_1374_" fill="#24572B" d="M318.1,215.8H41.4c-8.3,0-15-6.7-15-15c0-8.3,6.7-15,15-15h276.8c8.3,0,15,6.7,15,15
			C333.1,209.1,326.4,215.8,318.1,215.8z M41.4,187.3c-7.4,0-13.5,6-13.5,13.5c0,7.4,6,13.5,13.5,13.5h276.8c7.4,0,13.5-6,13.5-13.5
			c0-7.4-6-13.5-13.5-13.5H41.4z"/>
	</g>
	<g id="XMLID_1371_">
		<path id="XMLID_1372_" fill="#24572B" d="M195.5,80.3c-0.4,0-0.8-0.3-0.8-0.8v-4h-30v4c0,0.4-0.3,0.8-0.8,0.8
			c-0.4,0-0.8-0.3-0.8-0.8v-4.8c0-0.4,0.3-0.8,0.8-0.8h31.6c0.4,0,0.8,0.3,0.8,0.8v4.8C196.2,79.9,195.9,80.3,195.5,80.3z"/>
	</g>
	<g id="XMLID_1369_">
		<path id="XMLID_1370_" fill="#24572B" d="M163.9,76.9c-0.4,0-0.8-0.3-0.8-0.8v-3.9c0-0.4,0.3-0.8,0.8-0.8c0.4,0,0.8,0.3,0.8,0.8
			v3.9C164.7,76.5,164.3,76.9,163.9,76.9z"/>
	</g>
	<g id="XMLID_1367_">
		<path id="XMLID_1368_" fill="#24572B" d="M195.5,76.9c-0.4,0-0.8-0.3-0.8-0.8v-3.9c0-0.4,0.3-0.8,0.8-0.8c0.4,0,0.8,0.3,0.8,0.8
			v3.9C196.2,76.5,195.9,76.9,195.5,76.9z"/>
	</g>
	<g id="XMLID_1363_">
		<path id="XMLID_1364_" fill="#24572B" d="M189.3,75.4h-19.1c-0.4,0-0.8-0.3-0.8-0.8V60.1c0-0.4,0.3-0.8,0.8-0.8h19.1
			c0.4,0,0.8,0.3,0.8,0.8v14.5C190.1,75,189.7,75.4,189.3,75.4z M171,73.8h17.6v-13H171V73.8z"/>
	</g>
	<g id="XMLID_1359_">
		<path id="XMLID_1360_" fill="#24572B" d="M192.4,60.8h-25.5c-0.4,0-0.8-0.3-0.8-0.8s0.3-0.8,0.8-0.8c2.1,0,2.8-1.5,3.7-4.2
			c1.2-3.3,2.6-7.3,9-7.3c5.9,0,7.4,3.9,8.6,7.1c1.1,2.8,1.8,4.4,4.2,4.4c0.4,0,0.8,0.3,0.8,0.8S192.8,60.8,192.4,60.8z M170.3,59.3
			h18.5c-0.9-1-1.5-2.5-2-3.9c-1.2-3.1-2.3-6.1-7.2-6.1c-5.3,0-6.5,3.2-7.6,6.3C171.6,57,171.1,58.3,170.3,59.3z"/>
	</g>
	<g id="XMLID_1357_">
		<path id="XMLID_1358_" fill="#24572B" d="M179.7,74.9c-0.4,0-0.8-0.3-0.8-0.8V60.4c0-0.4,0.3-0.8,0.8-0.8c0.4,0,0.8,0.3,0.8,0.8
			v13.7C180.4,74.5,180.1,74.9,179.7,74.9z"/>
	</g>
	<g id="XMLID_1355_">
		<path id="XMLID_1356_" fill="#24572B" d="M174.9,74.9c-0.4,0-0.8-0.3-0.8-0.8V60.4c0-0.4,0.3-0.8,0.8-0.8c0.4,0,0.8,0.3,0.8,0.8
			v13.7C175.7,74.5,175.3,74.9,174.9,74.9z"/>
	</g>
	<g id="XMLID_1353_">
		<path id="XMLID_1354_" fill="#24572B" d="M184.4,74.9c-0.4,0-0.8-0.3-0.8-0.8V60.4c0-0.4,0.3-0.8,0.8-0.8c0.4,0,0.8,0.3,0.8,0.8
			v13.7C185.1,74.5,184.8,74.9,184.4,74.9z"/>
	</g>
	<g id="XMLID_1351_">
		<path id="XMLID_1352_" fill="#24572B" d="M334.5,107.9c-0.4,0-0.8-0.3-0.8-0.8V71.3H283v8.2c0,0.4-0.3,0.8-0.8,0.8
			c-0.4,0-0.8-0.3-0.8-0.8v-9c0-0.4,0.3-0.8,0.8-0.8h52.3c0.4,0,0.8,0.3,0.8,0.8v36.6C335.3,107.6,334.9,107.9,334.5,107.9z"/>
	</g>
	<g id="XMLID_1349_">
		<path id="XMLID_1350_" fill="#24572B" d="M334.5,171.9c-0.4,0-0.8-0.3-0.8-0.8v-12.3c0-0.4,0.3-0.8,0.8-0.8s0.8,0.3,0.8,0.8v12.3
			C335.3,171.6,334.9,171.9,334.5,171.9z"/>
	</g>
	<g id="XMLID_1347_">
		<path id="XMLID_1348_" fill="#24572B" d="M334.4,71.3c-0.2,0-0.4-0.1-0.6-0.2c-0.3-0.3-0.3-0.8,0-1.1l7.6-7.1l-7.6-7.1
			c-0.3-0.3-0.3-0.8,0-1.1c0.3-0.3,0.8-0.3,1.1,0l8.2,7.7c0.2,0.1,0.2,0.3,0.2,0.6s-0.1,0.4-0.2,0.6l-8.2,7.7
			C334.8,71.2,334.6,71.3,334.4,71.3z"/>
	</g>
	<g id="XMLID_1345_">
		<path id="XMLID_1346_" fill="#24572B" d="M282.2,71.3c-0.2,0-0.4-0.1-0.5-0.2l-7.6-7.5c-0.3-0.3-0.3-0.8,0-1.1l7.6-7.8
			c0.3-0.3,0.8-0.3,1.1,0c0.3,0.3,0.3,0.8,0,1.1l-7.1,7.3l7,6.9c0.3,0.3,0.3,0.8,0,1.1C282.6,71.2,282.4,71.3,282.2,71.3z"/>
	</g>
	<g id="XMLID_1341_">
		<path id="XMLID_1342_" fill="#24572B" d="M334.5,56h-52.2c-0.2,0-0.5-0.1-0.6-0.3c-0.1-0.2-0.2-0.4-0.1-0.7l13.8-45.6
			c0.1-0.3,0.4-0.5,0.7-0.5h24.6c0.3,0,0.6,0.2,0.7,0.5L335.3,55c0.1,0.2,0,0.5-0.1,0.7C335,55.8,334.8,56,334.5,56z M283.3,54.4
			h50.2l-13.3-44.1h-23.5L283.3,54.4z"/>
	</g>
	<g id="XMLID_1339_">
		<path id="XMLID_1340_" fill="#24572B" d="M342.2,63.8h-67.3c-0.4,0-0.8-0.3-0.8-0.8c0-0.4,0.3-0.8,0.8-0.8h67.3
			c0.4,0,0.8,0.3,0.8,0.8C343,63.5,342.6,63.8,342.2,63.8z"/>
	</g>
	<g id="XMLID_1337_">
		<path id="XMLID_1338_" fill="#24572B" d="M312.9,44.2c-0.4,0-0.8-0.3-0.8-0.8v-5.6l-3.7-5.3l-3.7,5.3v5.6c0,0.4-0.3,0.8-0.8,0.8
			s-0.8-0.3-0.8-0.8v-5.8c0-0.2,0-0.3,0.1-0.4l4.5-6.4c0.3-0.4,1-0.4,1.3,0l4.5,6.4c0.1,0.1,0.1,0.3,0.1,0.4v5.8
			C313.7,43.9,313.3,44.2,312.9,44.2z"/>
	</g>
	<g id="XMLID_1336_">
		
			<path fill="none" stroke="#24572B" stroke-width="1.5324" stroke-linecap="round" stroke-linejoin="round" stroke-miterlimit="10" d="
			M106.1,99.3"/>
	</g>
	<g id="XMLID_1334_">
		<path id="XMLID_1335_" fill="#24572B" d="M218.8,172.1c-0.4,0-0.8-0.3-0.8-0.8v-67.2h-76v67.2c0,0.4-0.3,0.8-0.8,0.8
			c-0.4,0-0.8-0.3-0.8-0.8v-68c0-0.4,0.3-0.8,0.8-0.8h77.5c0.4,0,0.8,0.3,0.8,0.8v68C219.5,171.8,219.2,172.1,218.8,172.1z"/>
	</g>
	<g id="XMLID_1332_">
		<path id="XMLID_1333_" fill="#24572B" d="M218.4,104.2c-0.2,0-0.5-0.1-0.6-0.3L201,80.3h-42.3l-16.8,23.6
			c-0.2,0.3-0.7,0.4-1.1,0.2c-0.3-0.2-0.4-0.7-0.2-1.1l17-23.9c0.1-0.2,0.4-0.3,0.6-0.3h43.1c0.2,0,0.5,0.1,0.6,0.3l17,23.9
			c0.2,0.3,0.2,0.8-0.2,1.1C218.7,104.1,218.6,104.2,218.4,104.2z"/>
	</g>
	<g id="XMLID_1328_">
		<path id="XMLID_1329_" fill="#24572B" d="M159.5,132.1h-8.8c-0.4,0-0.8-0.3-0.8-0.8v-15.2c0-2.9,2.3-5.2,5.2-5.2s5.2,2.3,5.2,5.2
			v15.2C160.2,131.7,159.9,132.1,159.5,132.1z M151.4,130.5h7.3v-14.5c0-2-1.6-3.6-3.6-3.6s-3.6,1.6-3.6,3.6V130.5z"/>
	</g>
	<g id="XMLID_1324_">
		<path id="XMLID_1325_" fill="#24572B" d="M176.1,132.1h-8.8c-0.4,0-0.8-0.3-0.8-0.8v-15.2c0-2.9,2.3-5.2,5.2-5.2
			c2.9,0,5.2,2.3,5.2,5.2v15.2C176.9,131.7,176.5,132.1,176.1,132.1z M168.1,130.5h7.3v-14.5c0-2-1.6-3.6-3.6-3.6s-3.6,1.6-3.6,3.6
			V130.5z"/>
	</g>
	<g id="XMLID_1320_">
		<path id="XMLID_1321_" fill="#24572B" d="M192.7,132.1h-8.8c-0.4,0-0.8-0.3-0.8-0.8v-15.2c0-2.9,2.3-5.2,5.2-5.2s5.2,2.3,5.2,5.2
			v15.2C193.5,131.7,193.2,132.1,192.7,132.1z M184.7,130.5h7.3v-14.5c0-2-1.6-3.6-3.6-3.6c-2,0-3.6,1.6-3.6,3.6V130.5z"/>
	</g>
	<g id="XMLID_1316_">
		<path id="XMLID_1317_" fill="#24572B" d="M209.4,132.1h-8.8c-0.4,0-0.8-0.3-0.8-0.8v-15.2c0-2.9,2.3-5.2,5.2-5.2s5.2,2.3,5.2,5.2
			v15.2C210.2,131.7,209.8,132.1,209.4,132.1z M201.3,130.5h7.3v-14.5c0-2-1.6-3.6-3.6-3.6c-2,0-3.6,1.6-3.6,3.6V130.5z"/>
	</g>
	<g id="XMLID_1314_">
		<path id="XMLID_1315_" fill="#24572B" d="M26.4,107.2c-0.4,0-0.8-0.3-0.8-0.8v-36c0-0.4,0.3-0.8,0.8-0.8h52.3
			c0.4,0,0.8,0.3,0.8,0.8v9c0,0.4-0.3,0.8-0.8,0.8c-0.4,0-0.8-0.3-0.8-0.8v-8.2H27.2v35.2C27.2,106.9,26.8,107.2,26.4,107.2z"/>
	</g>
	<g id="XMLID_1312_">
		<path id="XMLID_1313_" fill="#24572B" d="M26.4,172.1c-0.4,0-0.8-0.3-0.8-0.8v-12.3c0-0.4,0.3-0.8,0.8-0.8c0.4,0,0.8,0.3,0.8,0.8
			v12.3C27.2,171.8,26.8,172.1,26.4,172.1z"/>
	</g>
	<g id="XMLID_1310_">
		<path id="XMLID_1311_" fill="#24572B" d="M26.5,71.3c-0.2,0-0.4-0.1-0.5-0.2l-8.2-7.7c-0.2-0.1-0.2-0.3-0.2-0.6s0.1-0.4,0.2-0.6
			l8.2-7.7c0.3-0.3,0.8-0.3,1.1,0c0.3,0.3,0.3,0.8,0,1.1l-7.6,7.1l7.6,7.1c0.3,0.3,0.3,0.8,0,1.1C26.9,71.2,26.7,71.3,26.5,71.3z"/>
	</g>
	<g id="XMLID_1308_">
		<path id="XMLID_1309_" fill="#24572B" d="M78.7,71.3c-0.2,0-0.4-0.1-0.5-0.2c-0.3-0.3-0.3-0.8,0-1.1l7.2-7.1l-7.2-7.1
			c-0.3-0.3-0.3-0.8,0-1.1c0.3-0.3,0.8-0.3,1.1,0l7.7,7.7c0.1,0.1,0.2,0.3,0.2,0.5s-0.1,0.4-0.2,0.5l-7.7,7.7
			C79.1,71.2,78.9,71.3,78.7,71.3z"/>
	</g>
	<g id="XMLID_1304_">
		<path id="XMLID_1305_" fill="#24572B" d="M78.6,56H26.4c-0.2,0-0.5-0.1-0.6-0.3c-0.1-0.2-0.2-0.4-0.1-0.7L39.4,9.3
			c0.1-0.3,0.4-0.5,0.7-0.5h24.6c0.3,0,0.6,0.2,0.7,0.5L79.4,55c0.1,0.2,0,0.5-0.1,0.7C79.1,55.8,78.9,56,78.6,56z M27.4,54.4h50.2
			L64.3,10.3H40.8L27.4,54.4z"/>
	</g>
	<g id="XMLID_1302_">
		<path id="XMLID_1303_" fill="#24572B" d="M86.4,63.6H18.7c-0.4,0-0.8-0.3-0.8-0.8c0-0.4,0.3-0.8,0.8-0.8h67.8
			c0.4,0,0.8,0.3,0.8,0.8C87.2,63.3,86.9,63.6,86.4,63.6z"/>
	</g>
	<g id="XMLID_1300_">
		<path id="XMLID_1301_" fill="#24572B" d="M57,44.2c-0.4,0-0.8-0.3-0.8-0.8v-5.6l-3.8-5.4l-3.6,5.4v5.6c0,0.4-0.3,0.8-0.8,0.8
			s-0.8-0.3-0.8-0.8v-5.8c0-0.2,0-0.3,0.1-0.4l4.4-6.5c0.1-0.2,0.4-0.3,0.6-0.3c0.2,0,0.5,0.1,0.6,0.3l4.6,6.5
			c0.1,0.1,0.1,0.3,0.1,0.4v5.8C57.8,43.9,57.4,44.2,57,44.2z"/>
	</g>
	<g id="XMLID_1298_">
		<path id="XMLID_1299_" fill="#24572B" d="M90.7,80.5c-0.4,0-0.8-0.3-0.8-0.8v-3.3c0-0.4,0.3-0.8,0.8-0.8s0.8,0.3,0.8,0.8v3.3
			C91.5,80.2,91.1,80.5,90.7,80.5z"/>
	</g>
	<g id="XMLID_1296_">
		<path id="XMLID_1297_" fill="#24572B" d="M65.9,80.5c-0.4,0-0.8-0.3-0.8-0.8v-3.3c0-0.4,0.3-0.8,0.8-0.8s0.8,0.3,0.8,0.8v3.3
			C66.7,80.2,66.3,80.5,65.9,80.5z"/>
	</g>
	<g id="XMLID_1294_">
		<path id="XMLID_1295_" fill="#24572B" d="M294,80.5c-0.4,0-0.8-0.3-0.8-0.8v-3.3c0-0.4,0.3-0.8,0.8-0.8s0.8,0.3,0.8,0.8v3.3
			C294.7,80.2,294.4,80.5,294,80.5z"/>
	</g>
	<g id="XMLID_1292_">
		<path id="XMLID_1293_" fill="#24572B" d="M269.1,80.5c-0.4,0-0.8-0.3-0.8-0.8v-3.3c0-0.4,0.3-0.8,0.8-0.8c0.4,0,0.8,0.3,0.8,0.8
			v3.3C269.9,80.2,269.6,80.5,269.1,80.5z"/>
	</g>
	<g id="XMLID_1290_">
		<path id="XMLID_1291_" fill="#24572B" d="M160.5,172.1c-0.4,0-0.8-0.3-0.8-0.8v-10.7c0-2.5-2-4.5-4.5-4.5c-2.5,0-4.5,2-4.5,4.5
			v10.7c0,0.4-0.3,0.8-0.8,0.8c-0.4,0-0.8-0.3-0.8-0.8v-10.7c0-3.3,2.7-6.1,6.1-6.1s6.1,2.7,6.1,6.1v10.7
			C161.3,171.8,160.9,172.1,160.5,172.1z"/>
	</g>
	<g id="XMLID_1288_">
		<path id="XMLID_1289_" fill="#24572B" d="M210.3,172.1c-0.4,0-0.8-0.3-0.8-0.8v-10.7c0-2.5-2-4.5-4.5-4.5c-2.5,0-4.5,2-4.5,4.5
			v10.7c0,0.4-0.3,0.8-0.8,0.8c-0.4,0-0.8-0.3-0.8-0.8v-10.7c0-3.3,2.7-6.1,6.1-6.1s6.1,2.7,6.1,6.1v10.7
			C211,171.8,210.7,172.1,210.3,172.1z"/>
	</g>
	<g id="XMLID_1284_">
		<path id="XMLID_1285_" fill="#24572B" d="M307.6,84h-5.1c-0.4,0-0.8-0.3-0.8-0.8v-3.1c0-1.8,1.5-3.3,3.3-3.3
			c1.8,0,3.3,1.5,3.3,3.3v3.1C308.4,83.6,308.1,84,307.6,84z M303.3,82.4h3.6v-2.3c0-1-0.8-1.8-1.8-1.8s-1.8,0.8-1.8,1.8V82.4z"/>
	</g>
	<g id="XMLID_1280_">
		<path id="XMLID_1281_" fill="#24572B" d="M321.1,84h-5.1c-0.4,0-0.8-0.3-0.8-0.8v-3.1c0-1.8,1.5-3.3,3.3-3.3
			c1.8,0,3.3,1.5,3.3,3.3v3.1C321.8,83.6,321.5,84,321.1,84z M316.7,82.4h3.6v-2.3c0-1-0.8-1.8-1.8-1.8c-1,0-1.8,0.8-1.8,1.8V82.4z"
			/>
	</g>
	<g id="XMLID_1276_">
		<path id="XMLID_1277_" fill="#24572B" d="M334.5,84h-5.1c-0.4,0-0.8-0.3-0.8-0.8v-3.1c0-1.8,1.5-3.3,3.3-3.3
			c1.8,0,3.3,1.5,3.3,3.3v3.1C335.3,83.6,334.9,84,334.5,84z M330.2,82.4h3.6v-2.3c0-1-0.8-1.8-1.8-1.8s-1.8,0.8-1.8,1.8V82.4z"/>
	</g>
	<g id="XMLID_1272_">
		<path id="XMLID_1273_" fill="#24572B" d="M31.5,84h-5.1c-0.4,0-0.8-0.3-0.8-0.8v-3.1c0-1.8,1.5-3.3,3.3-3.3s3.3,1.5,3.3,3.3v3.1
			C32.3,83.6,31.9,84,31.5,84z M27.1,82.4h3.6v-2.3c0-1-0.8-1.8-1.8-1.8s-1.8,0.8-1.8,1.8V82.4z"/>
	</g>
	<g id="XMLID_1268_">
		<path id="XMLID_1269_" fill="#24572B" d="M45,84h-5.1c-0.4,0-0.8-0.3-0.8-0.8v-3.1c0-1.8,1.5-3.3,3.3-3.3s3.3,1.5,3.3,3.3v3.1
			C45.7,83.6,45.4,84,45,84z M40.6,82.4h3.6v-2.3c0-1-0.8-1.8-1.8-1.8s-1.8,0.8-1.8,1.8V82.4z"/>
	</g>
	<g id="XMLID_1264_">
		<path id="XMLID_1265_" fill="#24572B" d="M58.4,84h-5.1c-0.4,0-0.8-0.3-0.8-0.8v-3.1c0-1.8,1.5-3.3,3.3-3.3s3.3,1.5,3.3,3.3v3.1
			C59.2,83.6,58.8,84,58.4,84z M54,82.4h3.6v-2.3c0-1-0.8-1.8-1.8-1.8S54,79.1,54,80.1V82.4z"/>
	</g>
	<g id="XMLID_1262_">
		<path id="XMLID_1263_" fill="#24572B" d="M335.6,159.6h-23.3c-0.4,0-0.8-0.3-0.8-0.8c0-0.4,0.3-0.8,0.8-0.8h23.2c0,0,0,0,0.1,0
			c9.3-0.1,16.9-7.8,16.9-17.1c0-7.9-5.4-14.7-13.1-16.6c-0.2-0.1-0.4-0.2-0.5-0.4c-0.1-0.2-0.1-0.4-0.1-0.6
			c0.4-1.4,0.7-2.9,0.7-4.4c0-7.5-5.9-13.8-13.3-14.4c-0.4,0-0.7-0.4-0.7-0.8l0-0.2c0-7.6-6.2-13.7-13.7-13.7c-2.9,0-5.6,0.9-8,2.5
			c-0.3,0.2-0.8,0.2-1.1-0.2c-0.2-0.3-0.2-0.8,0.2-1.1c2.6-1.9,5.7-2.8,8.9-2.8c8.3,0,15,6.6,15.3,14.8c7.9,1,14.1,7.8,14.1,15.9
			c0,1.4-0.2,2.7-0.5,4c8,2.3,13.5,9.5,13.5,17.9C354,151.1,345.8,159.4,335.6,159.6C335.7,159.6,335.7,159.6,335.6,159.6z"/>
	</g>
	<g id="XMLID_1260_">
		<path id="XMLID_1261_" fill="#24572B" d="M47.5,159.6H24.4c0,0-0.1,0-0.1,0C14.2,159.4,6,151.1,6,141c0-8.4,5.5-15.6,13.5-17.9
			c-0.3-1.3-0.5-2.7-0.5-4c0-8.1,6.1-14.9,14-15.9c0.2-8.2,7-14.8,15.3-14.8c3.1,0,6,0.9,8.5,2.6c0.3,0.2,0.4,0.7,0.2,1.1
			c-0.2,0.3-0.7,0.4-1.1,0.2c-2.3-1.5-4.9-2.3-7.7-2.3c-7.6,0-13.7,6.2-13.7,13.7c0,0.4-0.3,1-0.7,1c-7.5,0.6-13.3,6.9-13.3,14.4
			c0,1.5,0.2,2.9,0.7,4.4c0.1,0.2,0,0.4-0.1,0.6c-0.1,0.2-0.3,0.3-0.5,0.4c-7.7,1.8-13.1,8.7-13.1,16.6c0,9.3,7.6,16.9,16.9,17.1
			c0,0,0,0,0.1,0h23.1c0.4,0,0.8,0.3,0.8,0.8C48.3,159.2,48,159.6,47.5,159.6z"/>
	</g>
	<g id="XMLID_1258_">
		<path id="XMLID_1259_" fill="#24572B" d="M109.3,128.4c-0.4,0-0.8-0.3-0.8-0.8v-24.2c0-0.4,0.3-0.8,0.8-0.8h32
			c0.4,0,0.8,0.3,0.8,0.8s-0.3,0.8-0.8,0.8h-31.2v23.4C110.1,128,109.7,128.4,109.3,128.4z"/>
	</g>
	<g id="XMLID_1256_">
		<path id="XMLID_1257_" fill="#24572B" d="M250.7,128.3c-0.4,0-0.8-0.3-0.8-0.8v-23.4h-31.2c-0.4,0-0.8-0.3-0.8-0.8
			s0.3-0.8,0.8-0.8h32c0.4,0,0.8,0.3,0.8,0.8v24.2C251.5,128,251.2,128.3,250.7,128.3z"/>
	</g>
	<g id="XMLID_1255_">
		
			<path fill="none" stroke="#24572B" stroke-width="1.5324" stroke-linecap="round" stroke-linejoin="round" stroke-miterlimit="10" d="
			M258.5,99.3"/>
	</g>
	<g id="XMLID_1253_">
		<path id="XMLID_1254_" fill="#24572B" d="M312.4,172.1c-0.4,0-0.8-0.3-0.8-0.8v-67.2h-60.1v23.2c0,0.4-0.3,0.8-0.8,0.8
			c-0.4,0-0.8-0.3-0.8-0.8v-24c0-0.4,0.3-0.8,0.8-0.8h61.6c0.4,0,0.8,0.3,0.8,0.8v68C313.1,171.8,312.8,172.1,312.4,172.1z"/>
	</g>
	<g id="XMLID_1251_">
		<path id="XMLID_1252_" fill="#24572B" d="M250.7,104.2c-0.2,0-0.3-0.1-0.5-0.2c-0.3-0.3-0.4-0.7-0.1-1.1L268.5,79
			c0.1-0.2,0.4-0.3,0.6-0.3h24.6c0.2,0,0.5,0.1,0.6,0.3l18.7,23.9c0.3,0.3,0.2,0.8-0.1,1.1c-0.3,0.3-0.8,0.2-1.1-0.1l-18.4-23.6
			h-23.8l-18.1,23.6C251.2,104.1,251,104.2,250.7,104.2z"/>
	</g>
	<g id="XMLID_1249_">
		<path id="XMLID_1250_" fill="#24572B" d="M47.7,172.2c-0.4,0-0.8-0.3-0.8-0.8v-68c0-0.4,0.3-0.8,0.8-0.8h61.6
			c0.4,0,0.8,0.3,0.8,0.8v24.2c0,0.4-0.3,0.8-0.8,0.8s-0.8-0.3-0.8-0.8v-23.4H48.5v67.2C48.5,171.8,48.1,172.2,47.7,172.2z"/>
	</g>
	<g id="XMLID_1247_">
		<path id="XMLID_1248_" fill="#24572B" d="M47.7,104.2c-0.2,0-0.3-0.1-0.5-0.2c-0.3-0.3-0.4-0.7-0.1-1.1L65.4,79
			c0.1-0.2,0.4-0.3,0.6-0.3h24.6c0.2,0,0.5,0.1,0.6,0.3l18.7,23.9c0.3,0.3,0.2,0.8-0.1,1.1c-0.3,0.3-0.8,0.2-1.1-0.1L90.3,80.3H66.4
			l-18.1,23.6C48.1,104.1,47.9,104.2,47.7,104.2z"/>
	</g>
	<g id="XMLID_1242_">
		<path id="XMLID_1243_" fill="#24572B" d="M287.9,94.4c-0.4,0-0.8-0.3-0.8-0.8V89l-5.5-3.5L276,89v4.7c0,0.4-0.3,0.8-0.8,0.8
			s-0.8-0.3-0.8-0.8v-5.1c0-0.3,0.1-0.5,0.4-0.7l6.3-3.9c0.2-0.2,0.6-0.2,0.8,0l6.3,3.9c0.2,0.1,0.4,0.4,0.4,0.7v5.1
			C288.6,94.1,288.3,94.4,287.9,94.4z"/>
	</g>
	<g id="XMLID_1240_">
		<path id="XMLID_1241_" fill="#24572B" d="M84.8,94.4c-0.4,0-0.8-0.3-0.8-0.8V89l-5.5-3.5L73,89v4.7c0,0.4-0.3,0.8-0.8,0.8
			s-0.8-0.3-0.8-0.8v-5.1c0-0.3,0.1-0.5,0.4-0.7l6.3-3.9c0.2-0.2,0.6-0.2,0.8,0l6.3,3.9c0.2,0.1,0.4,0.4,0.4,0.7v5.1
			C85.6,94.1,85.2,94.4,84.8,94.4z"/>
	</g>
	<g id="XMLID_1234_">
		<path id="XMLID_1237_" fill="#24572B" d="M223.6,141.1h-87.5c-0.4,0-0.8-0.3-0.8-0.8v-9c0-0.4,0.3-0.8,0.8-0.8h87.5
			c0.4,0,0.8,0.3,0.8,0.8v9C224.3,140.7,224,141.1,223.6,141.1z M136.8,139.5h86v-7.5h-86V139.5z"/>
	</g>
	<g id="XMLID_1230_">
		<path id="XMLID_1231_" fill="#24572B" d="M121.9,117h-6.1c-0.4,0-0.8-0.3-0.8-0.8v-6.1c0-0.4,0.3-0.8,0.8-0.8h6.1
			c0.4,0,0.8,0.3,0.8,0.8v6.1C122.6,116.7,122.3,117,121.9,117z M116.5,115.5h4.6v-4.6h-4.6V115.5z"/>
	</g>
	<g id="XMLID_1226_">
		<path id="XMLID_1227_" fill="#24572B" d="M135,117h-6.1c-0.4,0-0.8-0.3-0.8-0.8v-6.1c0-0.4,0.3-0.8,0.8-0.8h6.1
			c0.4,0,0.8,0.3,0.8,0.8v6.1C135.7,116.7,135.4,117,135,117z M129.6,115.5h4.6v-4.6h-4.6V115.5z"/>
	</g>
	<g id="XMLID_1222_">
		<path id="XMLID_1223_" fill="#24572B" d="M231.3,117h-6.1c-0.4,0-0.8-0.3-0.8-0.8v-6.1c0-0.4,0.3-0.8,0.8-0.8h6.1
			c0.4,0,0.8,0.3,0.8,0.8v6.1C232,116.7,231.7,117,231.3,117z M225.9,115.5h4.6v-4.6h-4.6V115.5z"/>
	</g>
	<g id="XMLID_1154_">
		<path id="XMLID_1155_" fill="#24572B" d="M244.4,117h-6.1c-0.4,0-0.8-0.3-0.8-0.8v-6.1c0-0.4,0.3-0.8,0.8-0.8h6.1
			c0.4,0,0.8,0.3,0.8,0.8v6.1C245.1,116.7,244.8,117,244.4,117z M239,115.5h4.6v-4.6H239V115.5z"/>
	</g>
	<g id="XMLID_1152_">
		<path id="XMLID_1153_" fill="#24572B" d="M152.7,87.9H97c-0.4,0-0.8-0.3-0.8-0.8s0.3-0.8,0.8-0.8h55.7c0.4,0,0.8,0.3,0.8,0.8
			S153.1,87.9,152.7,87.9z"/>
	</g>
	<g id="XMLID_1150_">
		<path id="XMLID_1151_" fill="#24572B" d="M263.2,87.9h-56.4c-0.4,0-0.8-0.3-0.8-0.8s0.3-0.8,0.8-0.8h56.4c0.4,0,0.8,0.3,0.8,0.8
			S263.6,87.9,263.2,87.9z"/>
	</g>
	<g id="XMLID_1148_">
		<path id="XMLID_1149_" fill="#24572B" d="M131.2,172.1c-0.4,0-0.8-0.3-0.8-0.8c0-0.4,0.3-0.8,0.8-0.8c3.2,0,6.1-1.6,7.8-4.3
			c1.7-2.7,1.9-6,0.6-8.9l-13.3-28.5c-1.5-3.3-4.8-5.3-8.4-5.3s-6.9,2.1-8.4,5.3l-3.8,8.2c-0.2,0.4-0.6,0.5-1,0.4
			c-0.4-0.2-0.5-0.6-0.4-1l3.8-8.2c1.8-3.8,5.6-6.2,9.8-6.2s8,2.4,9.8,6.2l13.3,28.5c1.6,3.4,1.3,7.3-0.7,10.4
			C138.3,170.3,134.9,172.1,131.2,172.1z"/>
	</g>
	<g id="XMLID_1146_">
		<path id="XMLID_1147_" fill="#24572B" d="M228.8,172.1c-3.7,0-7.1-1.9-9.1-5c-2-3.1-2.2-7-0.7-10.4l13.3-28.5
			c1.8-3.8,5.6-6.2,9.8-6.2l0,0c4.2,0,8,2.4,9.8,6.2l3.8,8.2c0.2,0.4,0,0.8-0.4,1c-0.4,0.2-0.8,0-1-0.4l-3.8-8.2
			c-1.5-3.3-4.8-5.3-8.4-5.3l0,0c-3.6,0-6.9,2.1-8.4,5.3l-13.3,28.5c-1.4,2.9-1.1,6.2,0.6,8.9c1.7,2.7,4.6,4.3,7.8,4.3
			c0.4,0,0.8,0.3,0.8,0.8C229.6,171.8,229.3,172.1,228.8,172.1z"/>
	</g>
	<g id="XMLID_1145_">
		<rect x="76.9" y="90.3" fill="#24572B" width="3.2" height="3.4"/>
	</g>
	<g id="XMLID_1144_">
		<path fill="#24572B" d="M118.8,97.1L118.8,97.1c-0.9,0-1.6-0.7-1.6-1.6v-0.2c0-0.9,0.7-1.6,1.6-1.6l0,0c0.9,0,1.6,0.7,1.6,1.6v0.2
			C120.4,96.3,119.7,97.1,118.8,97.1z"/>
	</g>
	<g id="XMLID_1143_">
		<path fill="#24572B" d="M131.9,97.1L131.9,97.1c-0.9,0-1.6-0.7-1.6-1.6v-0.2c0-0.9,0.7-1.6,1.6-1.6h0c0.9,0,1.6,0.7,1.6,1.6v0.2
			C133.5,96.3,132.8,97.1,131.9,97.1z"/>
	</g>
	<g id="XMLID_1142_">
		<path fill="#24572B" d="M228.2,97.1L228.2,97.1c-0.9,0-1.6-0.7-1.6-1.6v-0.2c0-0.9,0.7-1.6,1.6-1.6l0,0c0.9,0,1.6,0.7,1.6,1.6v0.2
			C229.8,96.3,229.1,97.1,228.2,97.1z"/>
	</g>
	<g id="XMLID_1141_">
		<path fill="#24572B" d="M241.3,97.1L241.3,97.1c-0.9,0-1.6-0.7-1.6-1.6v-0.2c0-0.9,0.7-1.6,1.6-1.6l0,0c0.9,0,1.6,0.7,1.6,1.6v0.2
			C242.9,96.3,242.2,97.1,241.3,97.1z"/>
	</g>
	<g id="XMLID_1140_">
		<rect x="51.3" y="38.1" fill="#24572B" width="2.5" height="6.2"/>
	</g>
	<g id="XMLID_1139_">
		<rect x="307.2" y="38.1" fill="#24572B" width="2.5" height="6.2"/>
	</g>
	<g id="XMLID_1138_">
		<rect x="279.9" y="90.3" fill="#24572B" width="3.2" height="3.4"/>
	</g>
	<g id="XMLID_1136_">
		<path id="XMLID_1137_" fill="#24572B" d="M152.7,104.2c-0.4,0-0.8-0.3-0.8-0.8V100c0-0.4,0.3-0.8,0.8-0.8c0.4,0,0.8,0.3,0.8,0.8
			v3.4C153.5,103.8,153.1,104.2,152.7,104.2z"/>
	</g>
	<g id="XMLID_1134_">
		<path id="XMLID_1135_" fill="#24572B" d="M207.2,104.2c-0.4,0-0.8-0.3-0.8-0.8V100c0-0.4,0.3-0.8,0.8-0.8c0.4,0,0.8,0.3,0.8,0.8
			v3.4C208,103.8,207.6,104.2,207.2,104.2z"/>
	</g>
	<g id="XMLID_1132_">
		<path id="XMLID_1133_" fill="#24572B" d="M34.1,172.1c-0.4,0-0.8-0.3-0.8-0.8v-12.5c0-0.4,0.3-0.8,0.8-0.8s0.8,0.3,0.8,0.8v12.5
			C34.8,171.8,34.5,172.1,34.1,172.1z"/>
	</g>
	<g id="XMLID_1130_">
		<path id="XMLID_1131_" fill="#24572B" d="M40.3,172.1c-0.4,0-0.8-0.3-0.8-0.8v-12.5c0-0.4,0.3-0.8,0.8-0.8s0.8,0.3,0.8,0.8v12.5
			C41.1,171.8,40.8,172.1,40.3,172.1z"/>
	</g>
	<g id="XMLID_1128_">
		<path id="XMLID_1129_" fill="#24572B" d="M320,172.1c-0.4,0-0.8-0.3-0.8-0.8v-12.5c0-0.4,0.3-0.8,0.8-0.8c0.4,0,0.8,0.3,0.8,0.8
			v12.5C320.8,171.8,320.4,172.1,320,172.1z"/>
	</g>
	<g id="XMLID_1126_">
		<path id="XMLID_1127_" fill="#24572B" d="M326.2,172.1c-0.4,0-0.8-0.3-0.8-0.8v-12.5c0-0.4,0.3-0.8,0.8-0.8c0.4,0,0.8,0.3,0.8,0.8
			v12.5C327,171.8,326.7,172.1,326.2,172.1z"/>
	</g>
	<g id="XMLID_1124_">
		<path id="XMLID_1125_" fill="#24572B" d="M189.6,160.1h-18.8c-0.4,0-0.8-0.3-0.8-0.8c0-0.4,0.3-0.8,0.8-0.8h18.8
			c0.4,0,0.8,0.3,0.8,0.8C190.3,159.7,190,160.1,189.6,160.1z"/>
	</g>
	<g id="XMLID_1122_">
		<path id="XMLID_1123_" fill="#24572B" d="M180,172.1c-0.4,0-0.8-0.3-0.8-0.8v-12.1c0-0.4,0.3-0.8,0.8-0.8c0.4,0,0.8,0.3,0.8,0.8
			v12.1C180.8,171.8,180.4,172.1,180,172.1z"/>
	</g>
	<g id="XMLID_1118_">
		<path id="XMLID_1119_" fill="#24572B" d="M102.1,117H96c-0.4,0-0.8-0.3-0.8-0.8v-6.1c0-0.4,0.3-0.8,0.8-0.8h6.1
			c0.4,0,0.8,0.3,0.8,0.8v6.1C102.9,116.7,102.6,117,102.1,117z M96.8,115.5h4.6v-4.6h-4.6V115.5z"/>
	</g>
	<g id="XMLID_1114_">
		<path id="XMLID_1115_" fill="#24572B" d="M61.8,117h-6.1c-0.4,0-0.8-0.3-0.8-0.8v-6.1c0-0.4,0.3-0.8,0.8-0.8h6.1
			c0.4,0,0.8,0.3,0.8,0.8v6.1C62.6,116.7,62.2,117,61.8,117z M56.4,115.5H61v-4.6h-4.6V115.5z"/>
	</g>
	<g id="XMLID_1112_">
		<path id="XMLID_1113_" fill="#24572B" d="M60,128.7h-4.3c-0.4,0-0.8-0.3-0.8-0.8v-6.1c0-0.4,0.3-0.8,0.8-0.8h6.1
			c0.4,0,0.8,0.3,0.8,0.8v2.2c0,0.4-0.3,0.8-0.8,0.8c-0.4,0-0.8-0.3-0.8-0.8v-1.5h-4.6v4.6H60c0.4,0,0.8,0.3,0.8,0.8
			C60.7,128.4,60.4,128.7,60,128.7z"/>
	</g>
	<g id="XMLID_1108_">
		<path id="XMLID_1109_" fill="#24572B" d="M302.9,117h-6.1c-0.4,0-0.8-0.3-0.8-0.8v-6.1c0-0.4,0.3-0.8,0.8-0.8h6.1
			c0.4,0,0.8,0.3,0.8,0.8v6.1C303.7,116.7,303.4,117,302.9,117z M297.6,115.5h4.6v-4.6h-4.6V115.5z"/>
	</g>
	<g id="XMLID_1104_">
		<path id="XMLID_1105_" fill="#24572B" d="M264.6,117h-6.1c-0.4,0-0.8-0.3-0.8-0.8v-6.1c0-0.4,0.3-0.8,0.8-0.8h6.1
			c0.4,0,0.8,0.3,0.8,0.8v6.1C265.4,116.7,265,117,264.6,117z M259.2,115.5h4.6v-4.6h-4.6V115.5z"/>
	</g>
	<g id="XMLID_1068_">
		<path id="XMLID_1103_" fill="#24572B" d="M302.9,128.7h-2.9c-0.4,0-0.8-0.3-0.8-0.8c0-0.4,0.3-0.8,0.8-0.8h2.1v-4.6h-4.9
			c-0.4,0-0.8-0.3-0.8-0.8s0.3-0.8,0.8-0.8h5.7c0.4,0,0.8,0.3,0.8,0.8v6.1C303.7,128.4,303.4,128.7,302.9,128.7z"/>
	</g>
	<g id="XMLID_996_">
		<path id="XMLID_1067_" fill="#24572B" d="M99.1,172.1c-0.4,0-0.8-0.3-0.8-0.8c0-0.4,0.3-0.8,0.8-0.8c4.6,0,8.8-2.3,11.2-6.2
			c2.5-3.9,2.8-8.6,0.8-12.8l-18.7-39.8c-2.2-4.7-6.8-7.7-12-7.7c-5.2,0-9.8,2.9-12,7.7l-18.7,39.8c-1.9,4.1-1.6,8.9,0.8,12.8
			c2.5,3.9,6.6,6.2,11.2,6.2c0.4,0,0.8,0.3,0.8,0.8c0,0.4-0.3,0.8-0.8,0.8c-5.1,0-9.8-2.6-12.5-6.9c-2.7-4.3-3.1-9.6-0.9-14.2
			L67,111.2c2.5-5.3,7.6-8.5,13.4-8.5c5.8,0,11,3.3,13.4,8.5l18.7,39.8c2.2,4.6,1.8,9.9-0.9,14.2S104.2,172.1,99.1,172.1z"/>
	</g>
	<g id="XMLID_994_">
		<path id="XMLID_995_" fill="#24572B" d="M298.3,172.1c-0.4,0-0.8-0.3-0.8-0.8c0-0.4,0.3-0.8,0.8-0.8c4.6,0,8.8-2.3,11.2-6.2
			c2.5-3.9,2.8-8.6,0.8-12.8l-18.7-39.8c-2.2-4.7-6.8-7.7-12-7.7c-5.2,0-9.8,2.9-12,7.7l-18.7,39.8c-1.9,4.1-1.6,8.9,0.8,12.8
			c2.5,3.9,6.6,6.2,11.2,6.2c0.4,0,0.8,0.3,0.8,0.8c0,0.4-0.3,0.8-0.8,0.8c-5.1,0-9.8-2.6-12.5-6.9c-2.7-4.3-3.1-9.6-0.9-14.2
			l18.7-39.8c2.5-5.3,7.6-8.5,13.4-8.5c5.8,0,11,3.3,13.4,8.5l18.7,39.8c2.2,4.6,1.8,9.9-0.9,14.2
			C308.1,169.6,303.4,172.1,298.3,172.1z"/>
	</g>
	<g id="XMLID_992_">
		<path id="XMLID_993_" fill="#24572B" d="M159.5,124h-8.8c-0.4,0-0.8-0.3-0.8-0.8c0-0.4,0.3-0.8,0.8-0.8h8.8c0.4,0,0.8,0.3,0.8,0.8
			C160.2,123.6,159.9,124,159.5,124z"/>
	</g>
	<g id="XMLID_990_">
		<path id="XMLID_991_" fill="#24572B" d="M176.1,124h-8.8c-0.4,0-0.8-0.3-0.8-0.8c0-0.4,0.3-0.8,0.8-0.8h8.8c0.4,0,0.8,0.3,0.8,0.8
			C176.9,123.6,176.5,124,176.1,124z"/>
	</g>
	<g id="XMLID_988_">
		<path id="XMLID_989_" fill="#24572B" d="M192.7,124h-8.8c-0.4,0-0.8-0.3-0.8-0.8c0-0.4,0.3-0.8,0.8-0.8h8.8c0.4,0,0.8,0.3,0.8,0.8
			C193.5,123.6,193.2,124,192.7,124z"/>
	</g>
	<g id="XMLID_986_">
		<path id="XMLID_987_" fill="#24572B" d="M209.4,124h-8.8c-0.4,0-0.8-0.3-0.8-0.8c0-0.4,0.3-0.8,0.8-0.8h8.8c0.4,0,0.8,0.3,0.8,0.8
			C210.2,123.6,209.8,124,209.4,124z"/>
	</g>
	<g id="XMLID_984_">
		<path id="XMLID_985_" fill="#24572B" d="M141.3,141.1c-0.4,0-0.8-0.3-0.8-0.8v-8.7c0-0.4,0.3-0.8,0.8-0.8c0.4,0,0.8,0.3,0.8,0.8
			v8.7C142,140.7,141.7,141.1,141.3,141.1z"/>
	</g>
	<g id="XMLID_982_">
		<path id="XMLID_983_" fill="#24572B" d="M146.4,141.1c-0.4,0-0.8-0.3-0.8-0.8v-8.7c0-0.4,0.3-0.8,0.8-0.8c0.4,0,0.8,0.3,0.8,0.8
			v8.7C147.2,140.7,146.9,141.1,146.4,141.1z"/>
	</g>
	<g id="XMLID_980_">
		<path id="XMLID_981_" fill="#24572B" d="M151.6,141.1c-0.4,0-0.8-0.3-0.8-0.8v-8.7c0-0.4,0.3-0.8,0.8-0.8c0.4,0,0.8,0.3,0.8,0.8
			v8.7C152.3,140.7,152,141.1,151.6,141.1z"/>
	</g>
	<g id="XMLID_978_">
		<path id="XMLID_979_" fill="#24572B" d="M156.7,141.1c-0.4,0-0.8-0.3-0.8-0.8v-8.7c0-0.4,0.3-0.8,0.8-0.8c0.4,0,0.8,0.3,0.8,0.8
			v8.7C157.5,140.7,157.2,141.1,156.7,141.1z"/>
	</g>
	<g id="XMLID_976_">
		<path id="XMLID_977_" fill="#24572B" d="M161.9,141.1c-0.4,0-0.8-0.3-0.8-0.8v-8.7c0-0.4,0.3-0.8,0.8-0.8c0.4,0,0.8,0.3,0.8,0.8
			v8.7C162.7,140.7,162.3,141.1,161.9,141.1z"/>
	</g>
	<g id="XMLID_974_">
		<path id="XMLID_975_" fill="#24572B" d="M167,141.1c-0.4,0-0.8-0.3-0.8-0.8v-8.7c0-0.4,0.3-0.8,0.8-0.8c0.4,0,0.8,0.3,0.8,0.8v8.7
			C167.8,140.7,167.5,141.1,167,141.1z"/>
	</g>
	<g id="XMLID_932_">
		<path id="XMLID_973_" fill="#24572B" d="M172.2,141.1c-0.4,0-0.8-0.3-0.8-0.8v-8.7c0-0.4,0.3-0.8,0.8-0.8c0.4,0,0.8,0.3,0.8,0.8
			v8.7C173,140.7,172.6,141.1,172.2,141.1z"/>
	</g>
	<g id="XMLID_930_">
		<path id="XMLID_931_" fill="#24572B" d="M177.3,141.1c-0.4,0-0.8-0.3-0.8-0.8v-8.7c0-0.4,0.3-0.8,0.8-0.8s0.8,0.3,0.8,0.8v8.7
			C178.1,140.7,177.8,141.1,177.3,141.1z"/>
	</g>
	<g id="XMLID_928_">
		<path id="XMLID_929_" fill="#24572B" d="M182.5,141.1c-0.4,0-0.8-0.3-0.8-0.8v-8.7c0-0.4,0.3-0.8,0.8-0.8c0.4,0,0.8,0.3,0.8,0.8
			v8.7C183.3,140.7,182.9,141.1,182.5,141.1z"/>
	</g>
	<g id="XMLID_926_">
		<path id="XMLID_927_" fill="#24572B" d="M187.7,141.1c-0.4,0-0.8-0.3-0.8-0.8v-8.7c0-0.4,0.3-0.8,0.8-0.8c0.4,0,0.8,0.3,0.8,0.8
			v8.7C188.4,140.7,188.1,141.1,187.7,141.1z"/>
	</g>
	<g id="XMLID_924_">
		<path id="XMLID_925_" fill="#24572B" d="M192.8,141.1c-0.4,0-0.8-0.3-0.8-0.8v-8.7c0-0.4,0.3-0.8,0.8-0.8c0.4,0,0.8,0.3,0.8,0.8
			v8.7C193.6,140.7,193.2,141.1,192.8,141.1z"/>
	</g>
	<g id="XMLID_922_">
		<path id="XMLID_923_" fill="#24572B" d="M198,141.1c-0.4,0-0.8-0.3-0.8-0.8v-8.7c0-0.4,0.3-0.8,0.8-0.8c0.4,0,0.8,0.3,0.8,0.8v8.7
			C198.7,140.7,198.4,141.1,198,141.1z"/>
	</g>
	<g id="XMLID_920_">
		<path id="XMLID_921_" fill="#24572B" d="M203.1,141.1c-0.4,0-0.8-0.3-0.8-0.8v-8.7c0-0.4,0.3-0.8,0.8-0.8s0.8,0.3,0.8,0.8v8.7
			C203.9,140.7,203.5,141.1,203.1,141.1z"/>
	</g>
	<g id="XMLID_918_">
		<path id="XMLID_919_" fill="#24572B" d="M208.3,141.1c-0.4,0-0.8-0.3-0.8-0.8v-8.7c0-0.4,0.3-0.8,0.8-0.8c0.4,0,0.8,0.3,0.8,0.8
			v8.7C209,140.7,208.7,141.1,208.3,141.1z"/>
	</g>
	<g id="XMLID_916_">
		<path id="XMLID_917_" fill="#24572B" d="M213.4,141.1c-0.4,0-0.8-0.3-0.8-0.8v-8.7c0-0.4,0.3-0.8,0.8-0.8c0.4,0,0.8,0.3,0.8,0.8
			v8.7C214.2,140.7,213.8,141.1,213.4,141.1z"/>
	</g>
	<g id="XMLID_914_">
		<path id="XMLID_915_" fill="#24572B" d="M218.6,141.1c-0.4,0-0.8-0.3-0.8-0.8v-8.7c0-0.4,0.3-0.8,0.8-0.8c0.4,0,0.8,0.3,0.8,0.8
			v8.7C219.3,140.7,219,141.1,218.6,141.1z"/>
	</g>
	<g id="XMLID_912_">
		<path id="XMLID_913_" fill="#24572B" d="M90.1,95H66.9c-0.4,0-0.8-0.3-0.8-0.8s0.3-0.8,0.8-0.8h23.2c0.4,0,0.8,0.3,0.8,0.8
			S90.5,95,90.1,95z"/>
	</g>
	<g id="XMLID_910_">
		<path id="XMLID_911_" fill="#24572B" d="M293.2,95h-23.2c-0.4,0-0.8-0.3-0.8-0.8s0.3-0.8,0.8-0.8h23.2c0.4,0,0.8,0.3,0.8,0.8
			S293.6,95,293.2,95z"/>
	</g>
	<g id="XMLID_908_">
		<path id="XMLID_909_" fill="#24572B" d="M164.7,103.8c-0.4,0-0.8-0.3-0.8-0.8v-6.8c0-0.4,0.3-0.8,0.8-0.8h4.9
			c0.5-2.2,2.5-3.9,4.9-3.9c0.4,0,0.8,0.3,0.8,0.8s-0.3,0.8-0.8,0.8c-1.8,0-3.3,1.4-3.5,3.2c0,0.4-0.4,0.7-0.8,0.7h-4.8v6
			C165.4,103.5,165.1,103.8,164.7,103.8z"/>
	</g>
	<g id="XMLID_906_">
		<path id="XMLID_907_" fill="#24572B" d="M195,103.8c-0.4,0-0.8-0.3-0.8-0.8v-6h-4.8c-0.4,0-0.7-0.3-0.8-0.7
			c-0.1-1.8-1.6-3.2-3.5-3.2c-0.4,0-0.8-0.3-0.8-0.8s0.3-0.8,0.8-0.8c2.4,0,4.4,1.6,4.9,3.9h4.9c0.4,0,0.8,0.3,0.8,0.8v6.8
			C195.8,103.5,195.4,103.8,195,103.8z"/>
	</g>
	<g id="XMLID_902_">
		<path id="XMLID_903_" fill="#24572B" d="M179.8,104.2c-3.4,0-6.2-4-6.2-8.9c0-4.9,2.8-8.9,6.2-8.9c3.4,0,6.2,4,6.2,8.9
			C186,100.2,183.2,104.2,179.8,104.2z M179.8,87.9c-2.5,0-4.6,3.4-4.6,7.4c0,4,2.1,7.4,4.6,7.4c2.5,0,4.6-3.4,4.6-7.4
			C184.5,91.3,182.3,87.9,179.8,87.9z"/>
	</g>
	<g id="XMLID_900_">
		<path id="XMLID_901_" fill="#24572B" d="M312.4,179.7H47.7c-0.4,0-0.8-0.3-0.8-0.8c0-0.4,0.3-0.8,0.8-0.8h264.7
			c0.4,0,0.8,0.3,0.8,0.8C313.1,179.3,312.8,179.7,312.4,179.7z"/>
	</g>
	<g id="XMLID_898_">
		<path id="XMLID_899_" fill="#24572B" d="M334.5,172.1H26.4c-0.4,0-0.8-0.3-0.8-0.8c0-0.4,0.3-0.8,0.8-0.8h308.1
			c0.4,0,0.8,0.3,0.8,0.8C335.3,171.8,334.9,172.1,334.5,172.1z"/>
	</g>
	<g id="XMLID_894_">
		<path id="XMLID_895_" fill="#24572B" d="M179.7,49.1c-2.7,0-5-2.2-5-5c0-2.7,2.2-5,5-5c2.7,0,5,2.2,5,5
			C184.6,46.9,182.4,49.1,179.7,49.1z M179.7,40.7c-1.9,0-3.4,1.5-3.4,3.4s1.5,3.4,3.4,3.4s3.4-1.5,3.4-3.4S181.6,40.7,179.7,40.7z"
			/>
	</g>
	<g id="XMLID_892_">
		<path id="XMLID_893_" fill="#24572B" d="M179.6,39.9c-0.4,0-0.8-0.3-0.8-0.8v-8.8c0-0.4,0.3-0.8,0.8-0.8c0.4,0,0.8,0.3,0.8,0.8
			v8.8C180.4,39.5,180.1,39.9,179.6,39.9z"/>
	</g>
	<g id="XMLID_890_">
		<path id="XMLID_891_" fill="#24572B" d="M128.4,48.3c-0.2,0-0.3,0-0.4-0.1l-6.3-4.5c-0.3-0.2-0.4-0.7-0.2-1.1
			c0.2-0.3,0.7-0.4,1.1-0.2l5.8,4.2l5.8-4.2c0.3-0.2,0.8-0.2,1.1,0.2c0.2,0.3,0.2,0.8-0.2,1.1l-6.2,4.5
			C128.7,48.3,128.6,48.3,128.4,48.3z"/>
	</g>
	<g id="XMLID_888_">
		<path id="XMLID_889_" fill="#24572B" d="M215.6,57.4c-0.2,0-0.3,0-0.4-0.1l-6.6-4.7c-0.3-0.2-0.4-0.7-0.2-1.1
			c0.2-0.3,0.7-0.4,1.1-0.2l6.1,4.4l6-4.4c0.3-0.2,0.8-0.2,1.1,0.2c0.2,0.3,0.2,0.8-0.2,1.1l-6.5,4.7
			C215.9,57.4,215.8,57.4,215.6,57.4z"/>
	</g>
	<g id="XMLID_886_">
		<path id="XMLID_887_" fill="#24572B" d="M148.9,65.6c-0.2,0-0.3,0-0.4-0.1l-6.3-4.5c-0.3-0.2-0.4-0.7-0.2-1.1
			c0.2-0.3,0.7-0.4,1.1-0.2l5.8,4.2l5.8-4.2c0.3-0.2,0.8-0.2,1.1,0.2c0.2,0.3,0.2,0.8-0.2,1.1l-6.2,4.5
			C149.2,65.6,149,65.6,148.9,65.6z"/>
	</g>
	<g id="XMLID_884_">
		<path id="XMLID_885_" fill="#24572B" d="M40.3,179.7H26.4c-0.4,0-0.8-0.3-0.8-0.8c0-0.4,0.3-0.8,0.8-0.8h13.9
			c0.4,0,0.8,0.3,0.8,0.8C41.1,179.3,40.8,179.7,40.3,179.7z"/>
	</g>
	<g id="XMLID_882_">
		<path id="XMLID_883_" fill="#24572B" d="M334.5,179.7H320c-0.4,0-0.8-0.3-0.8-0.8c0-0.4,0.3-0.8,0.8-0.8h14.5
			c0.4,0,0.8,0.3,0.8,0.8C335.3,179.3,334.9,179.7,334.5,179.7z"/>
	</g>
	<g id="XMLID_841_">
		<g id="XMLID_879_">
			<path fill="#24572B" d="M46.6,202.9h-1.1v5.1h-4.7v-14.5h7c4.3,0,6,2.3,6,4.8c0,1.9-0.8,3.4-2.8,4.1l3.3,5.6h-4.9L46.6,202.9
				L46.6,202.9z M47.7,200c1,0,1.6-0.8,1.6-1.7s-0.5-1.7-1.6-1.7h-2.1v3.4H47.7z"/>
		</g>
		<g id="XMLID_876_">
			<path fill="#24572B" d="M68,205.4h-4.1l-0.7,2.6h-4.7l4.4-14.5h6.5l4,14.5h-4.9L68,205.4z M64.6,202.6h2.7l-1.3-5.3L64.6,202.6z"
				/>
		</g>
		<g id="XMLID_874_">
			<path fill="#24572B" d="M82.8,204.8l2.7-11.3h4.7l-4,14.5h-6.7l-4-14.5h4.6L82.8,204.8z"/>
		</g>
		<g id="XMLID_871_">
			<path fill="#24572B" d="M101.7,205.4h-4.1l-0.7,2.6h-4.7l4.4-14.5h6.5l4,14.5h-4.9L101.7,205.4z M98.3,202.6h2.7l-1.3-5.3
				L98.3,202.6z"/>
		</g>
		<g id="XMLID_869_">
			<path fill="#24572B" d="M126.2,193.5V208h-5.3l-3.9-9v9h-4.4v-14.5h5.3l3.9,9v-9H126.2z"/>
		</g>
		<g id="XMLID_867_">
			<path fill="#24572B" d="M140,199.5h7.4v1.3c0,5.4-2.2,7.7-7.4,7.7c-5.5,0-7.8-2.3-7.8-7.7c0-5.4,2.4-7.7,7.8-7.7
				c4.4,0,6.5,1.5,7.2,5h-4.4c-0.3-1.2-1.1-1.7-2.8-1.7c-2.1,0-2.9,1.3-2.9,4.4c0,3.1,0.9,4.4,2.9,4.4c2.1,0,3-0.9,3-2.8h-3V199.5z"
				/>
		</g>
		<g id="XMLID_864_">
			<path fill="#24572B" d="M159.1,202.9H158v5.1h-4.7v-14.5h7c4.3,0,6,2.3,6,4.8c0,1.9-0.8,3.4-2.8,4.1l3.3,5.6H162L159.1,202.9
				L159.1,202.9z M160.1,200c1,0,1.6-0.8,1.6-1.7s-0.5-1.7-1.6-1.7H158v3.4H160.1z"/>
		</g>
		<g id="XMLID_861_">
			<path fill="#24572B" d="M180.4,205.4h-4.1l-0.7,2.6H171l4.4-14.5h6.5l4,14.5H181L180.4,205.4z M177.1,202.6h2.7l-1.3-5.3
				L177.1,202.6z"/>
		</g>
		<g id="XMLID_858_">
			<path fill="#24572B" d="M197.5,208h-6.2v-14.5h6.2c5.4,0,7.6,2.2,7.6,7.3C205.1,205.9,202.8,208,197.5,208z M195.9,196.6v8.4h1.3
				c2.1,0,3-1.3,3-4.2c0-2.9-0.9-4.2-3-4.2H195.9z"/>
		</g>
		<g id="XMLID_855_">
			<path fill="#24572B" d="M228.4,203.1h-2.2v4.9h-4.7v-14.5h6.8c4.3,0,6,2.3,6,4.8C234.4,200.8,232.7,203.1,228.4,203.1z
				 M228.1,196.6h-1.9v3.4h1.9c1,0,1.6-0.8,1.6-1.7S229.1,196.6,228.1,196.6z"/>
		</g>
		<g id="XMLID_853_">
			<path fill="#24572B" d="M244.8,193.5V208h-4.7v-14.5H244.8z"/>
		</g>
		<g id="XMLID_851_">
			<path fill="#24572B" d="M257.5,204.8l2.7-11.3h4.7l-4,14.5h-6.7l-4-14.5h4.6L257.5,204.8z"/>
		</g>
		<g id="XMLID_848_">
			<path fill="#24572B" d="M276.3,205.4h-4.1l-0.7,2.6h-4.7l4.4-14.5h6.5l4,14.5h-4.9L276.3,205.4z M272.9,202.6h2.7l-1.3-5.3
				L272.9,202.6z"/>
		</g>
		<g id="XMLID_845_">
			<path fill="#24572B" d="M292.8,202.9h-1.1v5.1h-4.7v-14.5h7c4.3,0,6,2.3,6,4.8c0,1.9-0.8,3.4-2.8,4.1l3.3,5.6h-4.9L292.8,202.9
				L292.8,202.9z M293.9,200c1,0,1.6-0.8,1.6-1.7s-0.5-1.7-1.6-1.7h-2.1v3.4H293.9z"/>
		</g>
		<g id="XMLID_842_">
			<path fill="#24572B" d="M314.1,205.4H310l-0.7,2.6h-4.7l4.4-14.5h6.5l4,14.5h-4.9L314.1,205.4z M310.8,202.6h2.7l-1.3-5.3
				L310.8,202.6z"/>
		</g>
	</g>
	<g id="XMLID_839_">
		<path id="XMLID_840_" fill="#24572B" d="M229.7,74.2h-16.3c-0.4,0-0.8-0.3-0.8-0.8s0.3-0.8,0.8-0.8h16.3c0.4,0,0.8,0.3,0.8,0.8
			S230.1,74.2,229.7,74.2z"/>
	</g>
	<g id="XMLID_837_">
		<path id="XMLID_838_" fill="#24572B" d="M144.2,79.5h-26.4c-0.4,0-0.8-0.3-0.8-0.8s0.3-0.8,0.8-0.8h26.4c0.4,0,0.8,0.3,0.8,0.8
			S144.7,79.5,144.2,79.5z"/>
	</g>
	<g id="XMLID_835_">
		<path id="XMLID_836_" fill="#24572B" d="M189.6,172.1c-0.4,0-0.8-0.3-0.8-0.8v-14.9c0-4.8-3.9-8.7-8.7-8.7c-4.8,0-8.7,3.9-8.7,8.7
			v14.9c0,0.4-0.3,0.8-0.8,0.8c-0.4,0-0.8-0.3-0.8-0.8v-14.9c0-5.6,4.6-10.2,10.2-10.2c5.6,0,10.2,4.6,10.2,10.2v14.9
			C190.3,171.8,190,172.1,189.6,172.1z"/>
	</g>
	<g id="XMLID_299_">
		<g id="XMLID_833_">
			<path id="XMLID_834_" fill="#24572B" d="M326.8,225.3c-0.1,0-0.2,0-0.2,0c-0.4-0.1-0.6-0.6-0.5-1l0.5-1.5c0.1-0.4,0.5-0.6,1-0.5
				c0.4,0.1,0.6,0.6,0.5,1l-0.5,1.5C327.4,225.1,327.1,225.3,326.8,225.3z"/>
		</g>
		<g id="XMLID_349_">
			<path id="XMLID_350_" fill="#24572B" d="M179.8,331.5l-1.5,0c-0.4,0-0.8-0.4-0.8-0.8c0-0.4,0.4-0.7,0.8-0.8l1.5,0l1.5,0
				c0,0,0,0,0,0c0.4,0,0.8,0.3,0.8,0.8c0,0.4-0.3,0.8-0.8,0.8L179.8,331.5z M184.3,331.5c-0.4,0-0.8-0.3-0.8-0.7
				c0-0.4,0.3-0.8,0.7-0.8c1,0,2-0.1,3-0.1c0.5-0.1,0.8,0.3,0.8,0.7c0,0.4-0.3,0.8-0.7,0.8C186.4,331.4,185.4,331.4,184.3,331.5
				C184.4,331.5,184.4,331.5,184.3,331.5z M175.2,331.5C175.2,331.5,175.2,331.5,175.2,331.5c-1,0-2.1-0.1-3.1-0.1
				c-0.4,0-0.7-0.4-0.7-0.8c0-0.4,0.4-0.8,0.8-0.7c1,0,2,0.1,3,0.1c0.4,0,0.8,0.4,0.7,0.8C175.9,331.1,175.6,331.5,175.2,331.5z
				 M169.1,331.2C169.1,331.2,169,331.2,169.1,331.2c-1.1-0.1-2.1-0.1-3.1-0.2c-0.4,0-0.7-0.4-0.7-0.8c0-0.4,0.4-0.7,0.8-0.7
				c1,0.1,2,0.2,3,0.2c0.4,0,0.7,0.4,0.7,0.8C169.8,330.9,169.5,331.2,169.1,331.2z M190.4,331.2c-0.4,0-0.7-0.3-0.8-0.7
				c0-0.4,0.3-0.8,0.7-0.8c1-0.1,2-0.1,3-0.2c0.5,0,0.8,0.3,0.8,0.7c0,0.4-0.3,0.8-0.7,0.8C192.5,331,191.5,331.1,190.4,331.2
				C190.5,331.2,190.5,331.2,190.4,331.2z M163,330.6C163,330.6,162.9,330.6,163,330.6c-1.1-0.1-2.1-0.2-3.1-0.4
				c-0.4-0.1-0.7-0.4-0.7-0.9c0.1-0.4,0.4-0.7,0.9-0.7c1,0.1,2,0.2,3,0.4c0.4,0,0.7,0.4,0.7,0.8C163.7,330.4,163.4,330.6,163,330.6z
				 M196.5,330.6c-0.4,0-0.7-0.3-0.8-0.7c0-0.4,0.3-0.8,0.7-0.8c1-0.1,2-0.2,3-0.3c0.5-0.1,0.8,0.2,0.9,0.7c0.1,0.4-0.2,0.8-0.7,0.9
				C198.7,330.4,197.6,330.5,196.5,330.6C196.6,330.6,196.6,330.6,196.5,330.6z M156.9,329.9c0,0-0.1,0-0.1,0c-1-0.2-2-0.3-3-0.5
				c-0.4-0.1-0.7-0.5-0.6-0.9c0.1-0.4,0.5-0.7,0.9-0.6c1,0.2,2,0.3,3,0.5c0.4,0.1,0.7,0.5,0.6,0.9
				C157.6,329.6,157.3,329.9,156.9,329.9z M202.6,329.9c-0.4,0-0.7-0.3-0.8-0.7c-0.1-0.4,0.2-0.8,0.6-0.9c1-0.1,2-0.3,3-0.5
				c0.4,0,0.8,0.2,0.9,0.6c0.1,0.4-0.2,0.8-0.6,0.9c-1,0.2-2,0.3-3,0.5C202.7,329.9,202.6,329.9,202.6,329.9z M208.6,328.9
				c-0.4,0-0.7-0.3-0.8-0.6c-0.1-0.4,0.2-0.8,0.6-0.9c1-0.2,2-0.4,3-0.6c0.4-0.1,0.8,0.2,0.9,0.6c0.1,0.4-0.2,0.8-0.6,0.9
				c-1,0.2-2,0.4-3,0.6C208.7,328.9,208.7,328.9,208.6,328.9z M150.9,328.9c0,0-0.1,0-0.1,0c-1-0.2-2-0.4-3-0.6
				c-0.4-0.1-0.7-0.5-0.6-0.9c0.1-0.4,0.5-0.7,0.9-0.6c1,0.2,2,0.4,3,0.6c0.4,0.1,0.7,0.5,0.6,0.9
				C151.6,328.6,151.3,328.9,150.9,328.9z M214.6,327.6c-0.3,0-0.7-0.2-0.7-0.6c-0.1-0.4,0.2-0.8,0.6-0.9c1-0.2,2-0.5,3-0.7
				c0.4-0.1,0.8,0.1,0.9,0.6c0.1,0.4-0.1,0.8-0.6,0.9c-1,0.2-2,0.5-3,0.7C214.7,327.6,214.7,327.6,214.6,327.6z M144.9,327.6
				c-0.1,0-0.1,0-0.2,0c-1-0.2-2-0.5-3-0.7c-0.4-0.1-0.7-0.5-0.6-0.9c0.1-0.4,0.5-0.7,0.9-0.6c1,0.2,2,0.5,3,0.7
				c0.4,0.1,0.7,0.5,0.6,0.9C145.6,327.4,145.3,327.6,144.9,327.6z M220.5,326.2c-0.3,0-0.6-0.2-0.7-0.6c-0.1-0.4,0.1-0.8,0.5-0.9
				c1-0.3,2-0.5,2.9-0.8c0.4-0.1,0.8,0.1,0.9,0.5s-0.1,0.8-0.5,0.9c-1,0.3-2,0.6-3,0.8C220.7,326.1,220.6,326.2,220.5,326.2z
				 M139,326.1c-0.1,0-0.1,0-0.2,0c-1-0.3-2-0.5-3-0.8c-0.4-0.1-0.6-0.5-0.5-0.9c0.1-0.4,0.5-0.6,0.9-0.5c1,0.3,1.9,0.6,2.9,0.8
				c0.4,0.1,0.7,0.5,0.5,0.9C139.6,325.9,139.3,326.1,139,326.1z M226.4,324.4c-0.3,0-0.6-0.2-0.7-0.5c-0.1-0.4,0.1-0.8,0.5-1
				c1-0.3,1.9-0.6,2.9-0.9c0.4-0.1,0.8,0.1,1,0.5c0.1,0.4-0.1,0.8-0.5,1c-1,0.3-1.9,0.6-2.9,0.9
				C226.6,324.4,226.5,324.4,226.4,324.4z M133.1,324.4c-0.1,0-0.2,0-0.2,0c-1-0.3-2-0.6-2.9-1c-0.4-0.1-0.6-0.6-0.5-1
				c0.1-0.4,0.6-0.6,1-0.5c1,0.3,1.9,0.6,2.9,0.9c0.4,0.1,0.6,0.6,0.5,1C133.7,324.2,133.4,324.4,133.1,324.4z M232.2,322.5
				c-0.3,0-0.6-0.2-0.7-0.5c-0.1-0.4,0.1-0.8,0.5-1c1-0.3,1.9-0.7,2.8-1c0.4-0.2,0.8,0,1,0.4c0.2,0.4,0,0.8-0.4,1
				c-1,0.4-1.9,0.7-2.9,1.1C232.4,322.5,232.3,322.5,232.2,322.5z M127.3,322.5c-0.1,0-0.2,0-0.3,0c-1-0.3-1.9-0.7-2.9-1.1
				c-0.4-0.1-0.6-0.6-0.4-1c0.1-0.4,0.6-0.6,1-0.4c0.9,0.4,1.9,0.7,2.9,1.1c0.4,0.1,0.6,0.6,0.5,1
				C127.9,322.3,127.6,322.5,127.3,322.5z M237.9,320.3c-0.3,0-0.6-0.2-0.7-0.5c-0.2-0.4,0-0.8,0.4-1c0.9-0.4,1.9-0.8,2.8-1.2
				c0.4-0.2,0.8,0,1,0.4c0.2,0.4,0,0.8-0.4,1c-0.9,0.4-1.9,0.8-2.8,1.2C238.1,320.3,238,320.3,237.9,320.3z M121.6,320.3
				c-0.1,0-0.2,0-0.3-0.1c-1-0.4-1.9-0.8-2.8-1.2c-0.4-0.2-0.6-0.6-0.4-1c0.2-0.4,0.6-0.6,1-0.4c0.9,0.4,1.9,0.8,2.8,1.2
				c0.4,0.2,0.6,0.6,0.4,1C122.2,320.1,121.9,320.3,121.6,320.3z M243.5,318c-0.3,0-0.6-0.2-0.7-0.5c-0.2-0.4,0-0.8,0.4-1
				c0.9-0.4,1.8-0.8,2.8-1.3c0.4-0.2,0.8,0,1,0.4c0.2,0.4,0,0.8-0.4,1c-0.9,0.4-1.9,0.9-2.8,1.3C243.7,317.9,243.6,318,243.5,318z
				 M115.9,317.9c-0.1,0-0.2,0-0.3-0.1c-0.9-0.4-1.9-0.9-2.8-1.3c-0.4-0.2-0.5-0.6-0.4-1c0.2-0.4,0.6-0.5,1-0.4
				c0.9,0.4,1.8,0.9,2.8,1.3c0.4,0.2,0.6,0.6,0.4,1C116.5,317.7,116.2,317.9,115.9,317.9z M249,315.4c-0.3,0-0.6-0.2-0.7-0.4
				c-0.2-0.4,0-0.8,0.3-1c0.9-0.5,1.8-0.9,2.7-1.4c0.4-0.2,0.8,0,1,0.3c0.2,0.4,0,0.8-0.3,1c-0.9,0.5-1.8,0.9-2.7,1.4
				C249.2,315.3,249.1,315.4,249,315.4z M110.4,315.2c-0.1,0-0.2,0-0.3-0.1c-0.9-0.5-1.8-0.9-2.7-1.4c-0.4-0.2-0.5-0.7-0.3-1
				c0.2-0.4,0.7-0.5,1-0.3c0.9,0.5,1.8,0.9,2.7,1.4c0.4,0.2,0.5,0.7,0.3,1C111,315.1,110.7,315.2,110.4,315.2z M254.4,312.5
				c-0.3,0-0.5-0.1-0.7-0.4c-0.2-0.4-0.1-0.8,0.3-1c0.9-0.5,1.8-1,2.7-1.5c0.4-0.2,0.8-0.1,1,0.3c0.2,0.4,0.1,0.8-0.3,1
				c-0.9,0.5-1.8,1-2.7,1.5C254.7,312.5,254.5,312.5,254.4,312.5z M105,312.4c-0.1,0-0.3,0-0.4-0.1c-0.9-0.5-1.8-1-2.7-1.5
				c-0.4-0.2-0.5-0.7-0.3-1c0.2-0.4,0.7-0.5,1-0.3c0.9,0.5,1.8,1,2.7,1.5c0.4,0.2,0.5,0.7,0.3,1C105.5,312.2,105.3,312.4,105,312.4z
				 M259.7,309.5c-0.3,0-0.5-0.1-0.7-0.4c-0.2-0.4-0.1-0.8,0.3-1.1c0.9-0.5,1.7-1.1,2.6-1.6c0.4-0.2,0.8-0.1,1.1,0.2
				c0.2,0.4,0.1,0.8-0.2,1.1c-0.9,0.5-1.7,1.1-2.6,1.6C260,309.5,259.8,309.5,259.7,309.5z M99.7,309.3c-0.1,0-0.3,0-0.4-0.1
				c-0.9-0.5-1.7-1.1-2.6-1.6c-0.4-0.2-0.5-0.7-0.2-1.1c0.2-0.4,0.7-0.5,1.1-0.2c0.9,0.5,1.7,1.1,2.6,1.6c0.4,0.2,0.5,0.7,0.3,1.1
				C100.2,309.2,100,309.3,99.7,309.3z M264.9,306.3c-0.2,0-0.5-0.1-0.6-0.3c-0.2-0.4-0.1-0.8,0.2-1.1c0.8-0.6,1.7-1.1,2.5-1.7
				c0.4-0.2,0.8-0.2,1.1,0.2c0.2,0.3,0.1,0.8-0.2,1.1c-0.8,0.6-1.7,1.1-2.6,1.7C265.2,306.2,265,306.3,264.9,306.3z M94.5,306.1
				c-0.1,0-0.3,0-0.4-0.1c-0.9-0.6-1.7-1.1-2.5-1.7c-0.3-0.2-0.4-0.7-0.2-1.1c0.2-0.3,0.7-0.4,1.1-0.2c0.8,0.6,1.7,1.1,2.5,1.7
				c0.4,0.2,0.4,0.7,0.2,1.1C95,305.9,94.8,306.1,94.5,306.1z M269.9,302.8c-0.2,0-0.5-0.1-0.6-0.3c-0.2-0.3-0.2-0.8,0.2-1.1
				c0.8-0.6,1.6-1.2,2.5-1.8c0.3-0.3,0.8-0.2,1.1,0.2c0.3,0.3,0.2,0.8-0.2,1.1c-0.8,0.6-1.7,1.2-2.5,1.8
				C270.2,302.8,270.1,302.8,269.9,302.8z M89.5,302.6c-0.2,0-0.3,0-0.4-0.1c-0.8-0.6-1.7-1.2-2.5-1.8c-0.3-0.3-0.4-0.7-0.2-1.1
				c0.3-0.3,0.7-0.4,1.1-0.2c0.8,0.6,1.6,1.2,2.4,1.8c0.3,0.2,0.4,0.7,0.2,1.1C90,302.5,89.7,302.6,89.5,302.6z M274.8,299.2
				c-0.2,0-0.5-0.1-0.6-0.3c-0.3-0.3-0.2-0.8,0.1-1.1c0.8-0.6,1.6-1.2,2.4-1.9c0.3-0.3,0.8-0.2,1.1,0.1c0.3,0.3,0.2,0.8-0.1,1.1
				c-0.8,0.6-1.6,1.3-2.4,1.9C275.1,299.1,275,299.2,274.8,299.2z M84.6,298.9c-0.2,0-0.3-0.1-0.5-0.2c-0.8-0.6-1.6-1.3-2.4-1.9
				c-0.3-0.3-0.4-0.8-0.1-1.1c0.3-0.3,0.8-0.4,1.1-0.1c0.8,0.6,1.6,1.3,2.4,1.9c0.3,0.3,0.4,0.7,0.1,1.1
				C85.1,298.8,84.8,298.9,84.6,298.9z M279.6,295.4c-0.2,0-0.4-0.1-0.6-0.3c-0.3-0.3-0.2-0.8,0.1-1.1c0.8-0.7,1.5-1.3,2.3-2
				c0.3-0.3,0.8-0.2,1.1,0.1s0.2,0.8-0.1,1.1c-0.8,0.7-1.5,1.3-2.3,2C279.9,295.3,279.7,295.4,279.6,295.4z M79.9,295
				c-0.2,0-0.4-0.1-0.5-0.2c-0.8-0.7-1.6-1.3-2.3-2c-0.3-0.3-0.3-0.8-0.1-1.1c0.3-0.3,0.8-0.3,1.1-0.1c0.8,0.7,1.5,1.3,2.3,2
				c0.3,0.3,0.4,0.8,0.1,1.1C80.3,294.9,80.1,295,79.9,295z M284.2,291.4c-0.2,0-0.4-0.1-0.6-0.3c-0.3-0.3-0.3-0.8,0.1-1.1
				c0.8-0.7,1.5-1.4,2.2-2.1c0.3-0.3,0.8-0.3,1.1,0c0.3,0.3,0.3,0.8,0,1.1c-0.7,0.7-1.5,1.4-2.3,2.1
				C284.5,291.3,284.3,291.4,284.2,291.4z M75.3,291c-0.2,0-0.4-0.1-0.5-0.2c-0.8-0.7-1.5-1.4-2.2-2.1c-0.3-0.3-0.3-0.8,0-1.1
				c0.3-0.3,0.8-0.3,1.1,0c0.7,0.7,1.5,1.4,2.2,2.1c0.3,0.3,0.3,0.8,0,1.1C75.7,290.9,75.5,291,75.3,291z M288.6,287.2
				c-0.2,0-0.4-0.1-0.5-0.2c-0.3-0.3-0.3-0.8,0-1.1c0.7-0.7,1.4-1.4,2.1-2.1c0.3-0.3,0.8-0.3,1.1,0c0.3,0.3,0.3,0.8,0,1.1
				c-0.7,0.7-1.4,1.5-2.2,2.2C289,287.1,288.8,287.2,288.6,287.2z M70.9,286.8c-0.2,0-0.4-0.1-0.5-0.2c-0.7-0.7-1.4-1.4-2.2-2.2
				c-0.3-0.3-0.3-0.8,0-1.1c0.3-0.3,0.8-0.3,1.1,0c0.7,0.7,1.4,1.5,2.1,2.2c0.3,0.3,0.3,0.8,0,1.1C71.3,286.7,71.1,286.8,70.9,286.8
				z M292.9,282.8c-0.2,0-0.4-0.1-0.5-0.2c-0.3-0.3-0.3-0.8,0-1.1c0.7-0.7,1.4-1.5,2.1-2.2c0.3-0.3,0.8-0.3,1.1-0.1
				c0.3,0.3,0.3,0.8,0.1,1.1c-0.7,0.8-1.4,1.5-2.1,2.3C293.3,282.7,293.1,282.8,292.9,282.8z M66.6,282.4c-0.2,0-0.4-0.1-0.6-0.2
				c-0.7-0.8-1.4-1.5-2.1-2.3c-0.3-0.3-0.3-0.8,0.1-1.1c0.3-0.3,0.8-0.3,1.1,0.1c0.7,0.8,1.4,1.5,2,2.3c0.3,0.3,0.3,0.8,0,1.1
				C67,282.3,66.8,282.4,66.6,282.4z M297,278.3c-0.2,0-0.4-0.1-0.5-0.2c-0.3-0.3-0.4-0.8-0.1-1.1c0.7-0.8,1.3-1.5,2-2.3
				c0.3-0.3,0.8-0.4,1.1-0.1c0.3,0.3,0.4,0.8,0.1,1.1c-0.7,0.8-1.3,1.6-2,2.3C297.4,278.2,297.2,278.3,297,278.3z M62.6,277.8
				c-0.2,0-0.4-0.1-0.6-0.3c-0.7-0.8-1.3-1.6-2-2.3c-0.3-0.3-0.2-0.8,0.1-1.1c0.3-0.3,0.8-0.2,1.1,0.1c0.6,0.8,1.3,1.6,2,2.3
				c0.3,0.3,0.2,0.8-0.1,1.1C62.9,277.7,62.7,277.8,62.6,277.8z M300.9,273.5c-0.2,0-0.3-0.1-0.5-0.2c-0.3-0.3-0.4-0.7-0.1-1.1
				c0.6-0.8,1.3-1.6,1.9-2.4c0.3-0.3,0.7-0.4,1.1-0.1c0.3,0.3,0.4,0.7,0.1,1.1c-0.6,0.8-1.3,1.6-1.9,2.4
				C301.3,273.4,301.1,273.5,300.9,273.5z M58.7,273.1c-0.2,0-0.5-0.1-0.6-0.3c-0.6-0.8-1.3-1.6-1.9-2.4c-0.3-0.3-0.2-0.8,0.1-1.1
				c0.3-0.3,0.8-0.2,1.1,0.1c0.6,0.8,1.2,1.6,1.9,2.4c0.3,0.3,0.2,0.8-0.1,1.1C59,273,58.9,273.1,58.7,273.1z M304.6,268.7
				c-0.2,0-0.3,0-0.5-0.1c-0.3-0.2-0.4-0.7-0.2-1.1c0.6-0.8,1.2-1.6,1.8-2.5c0.2-0.3,0.7-0.4,1.1-0.2c0.3,0.2,0.4,0.7,0.2,1.1
				c-0.6,0.8-1.2,1.7-1.8,2.5C305.1,268.6,304.8,268.7,304.6,268.7z M55,268.2c-0.2,0-0.5-0.1-0.6-0.3c-0.6-0.8-1.2-1.7-1.8-2.5
				c-0.2-0.3-0.2-0.8,0.2-1.1c0.3-0.2,0.8-0.2,1.1,0.2c0.6,0.8,1.2,1.7,1.8,2.5c0.2,0.3,0.2,0.8-0.2,1.1
				C55.3,268.2,55.2,268.2,55,268.2z M308.1,263.7c-0.1,0-0.3,0-0.4-0.1c-0.4-0.2-0.4-0.7-0.2-1.1c0.6-0.8,1.1-1.7,1.7-2.5
				c0.2-0.4,0.7-0.5,1.1-0.2c0.4,0.2,0.5,0.7,0.2,1.1c-0.6,0.9-1.1,1.7-1.7,2.6C308.6,263.6,308.4,263.7,308.1,263.7z M51.5,263.2
				c-0.2,0-0.5-0.1-0.6-0.3c-0.6-0.9-1.1-1.7-1.7-2.6c-0.2-0.4-0.1-0.8,0.2-1.1c0.4-0.2,0.8-0.1,1.1,0.2c0.5,0.9,1.1,1.7,1.7,2.5
				c0.2,0.4,0.1,0.8-0.2,1.1C51.8,263.1,51.7,263.2,51.5,263.2z M311.4,258.6c-0.1,0-0.3,0-0.4-0.1c-0.4-0.2-0.5-0.7-0.2-1.1
				c0.5-0.9,1.1-1.7,1.6-2.6c0.2-0.4,0.7-0.5,1.1-0.3c0.4,0.2,0.5,0.7,0.3,1.1c-0.5,0.9-1.1,1.8-1.6,2.6
				C311.9,258.4,311.7,258.6,311.4,258.6z M48.2,258c-0.3,0-0.5-0.1-0.7-0.4c-0.5-0.9-1.1-1.7-1.6-2.6c-0.2-0.4-0.1-0.8,0.3-1
				c0.4-0.2,0.8-0.1,1,0.3c0.5,0.9,1,1.7,1.6,2.6c0.2,0.4,0.1,0.8-0.3,1.1C48.5,258,48.4,258,48.2,258z M314.5,253.3
				c-0.1,0-0.3,0-0.4-0.1c-0.4-0.2-0.5-0.7-0.3-1c0.5-0.9,1-1.8,1.5-2.7c0.2-0.4,0.7-0.5,1-0.3c0.4,0.2,0.5,0.7,0.3,1
				c-0.5,0.9-1,1.8-1.5,2.7C315.1,253.2,314.8,253.3,314.5,253.3z M45.2,252.8c-0.3,0-0.5-0.1-0.7-0.4c-0.5-0.9-1-1.8-1.5-2.7
				c-0.2-0.4-0.1-0.8,0.3-1c0.4-0.2,0.8-0.1,1,0.3c0.5,0.9,1,1.8,1.4,2.7c0.2,0.4,0.1,0.8-0.3,1C45.4,252.7,45.3,252.8,45.2,252.8z
				 M317.4,247.9c-0.1,0-0.2,0-0.3-0.1c-0.4-0.2-0.5-0.7-0.3-1c0.5-0.9,0.9-1.8,1.4-2.7c0.2-0.4,0.6-0.5,1-0.4
				c0.4,0.2,0.5,0.6,0.4,1c-0.4,0.9-0.9,1.8-1.4,2.8C318,247.8,317.7,247.9,317.4,247.9z M42.3,247.4c-0.3,0-0.6-0.2-0.7-0.4
				c-0.5-0.9-0.9-1.8-1.4-2.8c-0.2-0.4,0-0.8,0.4-1c0.4-0.2,0.8,0,1,0.4c0.4,0.9,0.9,1.8,1.3,2.7c0.2,0.4,0,0.8-0.3,1
				C42.6,247.4,42.4,247.4,42.3,247.4z M320.1,242.4c-0.1,0-0.2,0-0.3-0.1c-0.4-0.2-0.6-0.6-0.4-1c0.4-0.9,0.8-1.9,1.2-2.8
				c0.2-0.4,0.6-0.6,1-0.4c0.4,0.2,0.6,0.6,0.4,1c-0.4,0.9-0.8,1.9-1.3,2.8C320.7,242.2,320.4,242.4,320.1,242.4z M39.7,241.9
				c-0.3,0-0.6-0.2-0.7-0.4c-0.4-0.9-0.8-1.9-1.2-2.8c-0.2-0.4,0-0.8,0.4-1c0.4-0.2,0.8,0,1,0.4c0.4,0.9,0.8,1.9,1.2,2.8
				c0.2,0.4,0,0.8-0.4,1C39.9,241.9,39.8,241.9,39.7,241.9z M322.6,236.8c-0.1,0-0.2,0-0.3-0.1c-0.4-0.2-0.6-0.6-0.4-1
				c0.4-0.9,0.8-1.9,1.1-2.8c0.2-0.4,0.6-0.6,1-0.4c0.4,0.2,0.6,0.6,0.4,1c-0.4,1-0.8,1.9-1.1,2.9
				C323.1,236.6,322.9,236.8,322.6,236.8z M37.3,236.3c-0.3,0-0.6-0.2-0.7-0.5c-0.4-0.9-0.8-1.9-1.1-2.8c-0.2-0.4,0-0.8,0.4-1
				c0.4-0.1,0.8,0,1,0.4c0.4,0.9,0.7,1.9,1.1,2.8c0.2,0.4,0,0.8-0.4,1C37.5,236.3,37.4,236.3,37.3,236.3z M324.8,231.1
				c-0.1,0-0.2,0-0.3,0c-0.4-0.1-0.6-0.6-0.5-1c0.3-1,0.7-1.9,1-2.9c0.1-0.4,0.6-0.6,1-0.5c0.4,0.1,0.6,0.6,0.5,1
				c-0.3,1-0.7,1.9-1,2.9C325.4,230.9,325.1,231.1,324.8,231.1z M35.1,230.6c-0.3,0-0.6-0.2-0.7-0.5c-0.3-1-0.7-1.9-1-2.9
				c-0.1-0.4,0.1-0.8,0.5-1c0.4-0.1,0.8,0.1,1,0.5c0.3,1,0.7,1.9,1,2.9c0.1,0.4-0.1,0.8-0.5,1C35.3,230.6,35.2,230.6,35.1,230.6z"/>
		</g>
		<g id="XMLID_317_">
			<path id="XMLID_331_" fill="#24572B" d="M33.1,224.6c-0.3,0-0.6-0.2-0.7-0.5l-0.5-1.5c-0.1-0.4,0.1-0.8,0.5-1
				c0.4-0.1,0.8,0.1,1,0.5l0.5,1.5c0.1,0.4-0.1,0.8-0.5,1C33.2,224.6,33.2,224.6,33.1,224.6z"/>
		</g>
	</g>
	<g id="XMLID_295_">
		<path id="XMLID_296_" fill="#24572B" d="M40.2,10.3c-0.4,0-0.8-0.3-0.8-0.8V7.3c0-0.4,0.3-0.8,0.8-0.8s0.8,0.3,0.8,0.8v2.3
			C40.9,10,40.6,10.3,40.2,10.3z"/>
	</g>
	<g id="XMLID_293_">
		<path id="XMLID_294_" fill="#24572B" d="M52.5,10.3c-0.4,0-0.8-0.3-0.8-0.8V7.3c0-0.4,0.3-0.8,0.8-0.8s0.8,0.3,0.8,0.8v2.3
			C53.3,10,52.9,10.3,52.5,10.3z"/>
	</g>
	<g id="XMLID_290_">
		<path id="XMLID_292_" fill="#24572B" d="M64.9,10.3c-0.4,0-0.8-0.3-0.8-0.8V7.3c0-0.4,0.3-0.8,0.8-0.8s0.8,0.3,0.8,0.8v2.3
			C65.6,10,65.3,10.3,64.9,10.3z"/>
	</g>
	<g id="XMLID_284_">
		<path id="XMLID_286_" fill="#24572B" d="M296.2,10.3c-0.4,0-0.8-0.3-0.8-0.8V7.3c0-0.4,0.3-0.8,0.8-0.8s0.8,0.3,0.8,0.8v2.3
			C297,10,296.7,10.3,296.2,10.3z"/>
	</g>
	<g id="XMLID_279_">
		<path id="XMLID_280_" fill="#24572B" d="M308.6,10.3c-0.4,0-0.8-0.3-0.8-0.8V7.3c0-0.4,0.3-0.8,0.8-0.8s0.8,0.3,0.8,0.8v2.3
			C309.3,10,309,10.3,308.6,10.3z"/>
	</g>
	<g id="XMLID_268_">
		<path id="XMLID_277_" fill="#24572B" d="M320.7,10.3c-0.4,0-0.8-0.3-0.8-0.8V7.3c0-0.4,0.3-0.8,0.8-0.8s0.8,0.3,0.8,0.8v2.3
			C321.5,10,321.1,10.3,320.7,10.3z"/>
	</g>
</g>
</svg>
